<svg xmlns="http://www.w3.org/2000/svg" version="1.1" xmlns:xlink="http://www.w3.org/1999/xlink" xmlns:svgjs="http://svgjs.dev/svgjs" viewBox="0 0 6.202203892346237 2.4522480811223852"><g transform="matrix(0.7727382555542294,0,0,0.7727382555542294,0.9834129263563103,0.5573021767296668)"><rect width="6.923408223468622" height="6.923408223468622" x="-0.7212043311223852" y="-2.596182236734311" fill="#c8e5ce"></rect><g transform="matrix(1,0,0,1,0,0)" clip-path="url(#SvgjsClipPath64509)"><g clip-path="url(#SvgjsClipPath645046773ad7c-513f-4570-b26b-2cf562c6ffe0)"><path d=" M 1.7959718382196157 0.4007471988707655 C 1.7946284756098287 0.3795106367628607 1.7848247867767053 0.3795106367628607 1.7670752510176078 0.3795106367628607 L 1.7595581368394413 0.3795106367628607 C 1.7378928419837325 0.3795106367628607 1.730375727805563 0.38093974592220825 1.730375727805563 0.4087787923462987 L 1.730375727805563 0.4459356304893348 L 1.7961147491355516 0.40306235570890836 Z" fill="#c84449" transform="matrix(1,0,0,1,0,0)" fill-rule="nonzero"></path></g><g clip-path="url(#SvgjsClipPath645046773ad7c-513f-4570-b26b-2cf562c6ffe0)"><path d=" M 2.1662540214065684 0.4087787923462987 C 2.1662540214065684 0.3809397459222085 2.158765489411587 0.3795106367628607 2.1371001945558783 0.3795106367628607 L 2.129583080377712 0.3795106367628607 C 2.111833544618616 0.3795106367628607 2.102029855785491 0.3795106367628607 2.100686493175704 0.4007471988707655 L 2.1005150000765824 0.40326243099121717 L 2.1662540214065698 0.44613570577164363 Z" fill="#c84449" transform="matrix(1,0,0,1,0,0)" fill-rule="nonzero"></path></g><g clip-path="url(#SvgjsClipPath645046773ad7c-513f-4570-b26b-2cf562c6ffe0)"><path d=" M 1.646401273602303 0.4893805489335007 C 1.646401273602303 0.4615129203262232 1.638884159424135 0.4600838111668758 1.6172188645684251 0.4600838111668758 L 1.6097303325734438 0.4600838111668758 C 1.5880650377177368 0.4600838111668758 1.5805765057227554 0.4615129203262232 1.5805765057227554 0.4893805489335007 L 1.5805765057227554 0.5436866969887076 L 1.6463155270527425 0.500813422208281 Z" fill="#c84449" transform="matrix(1,0,0,1,0,0)" fill-rule="nonzero"></path></g><g clip-path="url(#SvgjsClipPath645046773ad7c-513f-4570-b26b-2cf562c6ffe0)"><path d=" M 2.3161104078557524 0.4893805489335007 C 2.3161104078557524 0.4615129203262232 2.308593293677586 0.4600838111668758 2.286927998821876 0.4600838111668758 L 2.2794108846437076 0.4600838111668758 C 2.257774171971186 0.4600838111668758 2.250257057793018 0.4615129203262232 2.250257057793018 0.4893805489335007 L 2.250257057793018 0.500813422208281 L 2.3159960791230065 0.5436866969887076 Z" fill="#c84449" transform="matrix(1,0,0,1,0,0)" fill-rule="nonzero"></path></g><g clip-path="url(#SvgjsClipPath645046773ad7c-513f-4570-b26b-2cf562c6ffe0)"><path d=" M 1.4514707842672956 0.6931143506900876 L 1.4519566813814737 0.6931143506900876 L 1.8633114618080735 0.6011083030112923 L 1.8633114618080735 0.3833406493099121 L 1.4539002698381867 0.6498409253450438 C 1.445781182574622 0.6522385663152609 1.4399543751176842 0.6593577007179003 1.4392090276800942 0.6677905363864491 L 1.4392090276800942 0.6729639115432872 C 1.4388126112616741 0.6785281550865713 1.4397943271687903 0.6841043014389974 1.4420672459987898 0.6891985915934753 C 1.4442160343080825 0.6921682807897657 1.4478493214698953 0.6936812301550193 1.4514707842672956 0.6931143506900876 Z" fill="#c84449" transform="matrix(1,0,0,1,0,0)" fill-rule="nonzero"></path></g><g clip-path="url(#SvgjsClipPath645046773ad7c-513f-4570-b26b-2cf562c6ffe0)"><path d=" M 2.4443872459987888 0.6931715150564616 L 2.445158964944837 0.6931715150564616 C 2.4544195922974086 0.6931715150564616 2.4574207215320385 0.688283961731493 2.4574207215320385 0.6730210759096611 L 2.4574207215320385 0.667847700752823 C 2.4567420831610907 0.6595625676948658 2.4510791115511683 0.6525291569553413 2.4431296299385625 0.6500981649937266 L 2.033289705220871 0.38345497804265993 L 2.033289705220871 0.60122263174404 L 2.443158212121749 0.6931715150564616 Z" fill="#c84449" transform="matrix(1,0,0,1,0,0)" fill-rule="nonzero"></path></g><g clip-path="url(#SvgjsClipPath645046773ad7c-513f-4570-b26b-2cf562c6ffe0)"><path d=" M 1.8357010728494803 0.9244871235884566 C 1.8073475471280243 0.9512686292346296 1.7805374592986634 0.9765638613550813 1.7581576098632803 0.9949707873274779 C 1.7461081465950232 1.0040703729249203 1.7393269719970186 1.01853117427587 1.7400365057227536 1.033613898996236 L 1.7400365057227536 1.0393303356336259 L 1.8956664931757012 1.000744388331242 L 1.8939515621844847 0.9962569855708906 C 1.8830163439679617 0.9657252951885447 1.8746320838956685 0.9343392908358206 1.8688849875295288 0.9024216781681305 L 1.867455878370181 0.8947330708908405 L 1.86173944173279 0.9000779391468003 C 1.8530504580439586 0.9079952038895859 1.844361474355126 0.9161982904642407 1.8357010728494803 0.9244871235884566 Z" fill="#c84449" transform="matrix(1,0,0,1,0,0)" fill-rule="nonzero"></path></g><g clip-path="url(#SvgjsClipPath645046773ad7c-513f-4570-b26b-2cf562c6ffe0)"><path d=" M 2.0009918382196172 1.0006014774153074 L 2.1566789900389383 1.0390730959849432 L 2.1566789900389383 1.0333566593475534 C 2.157243241765362 1.018317571991902 2.150503556095584 1.0039331875687225 2.1385864680816 0.9947421298619824 C 2.116206618646217 0.9763352038895861 2.089396530816856 0.9510399717691341 2.0610430050954 0.9242584661229611 L 2.0553265684580104 0.918942180050188 L 2.0349474718457135 0.8997921173149308 L 2.029231035208324 0.894447249058971 L 2.0278019260489764 0.9021358563362609 C 2.0220448648975227 0.9340512441000842 2.013660822762082 0.9654364326185046 2.0027353513940187 0.9959711637390232 Z" fill="#c84449" transform="matrix(1,0,0,1,0,0)" fill-rule="nonzero"></path></g><g clip-path="url(#SvgjsClipPath645046773ad7c-513f-4570-b26b-2cf562c6ffe0)"><path d=" M 1.914502151895904 0.9921697333751568 C 1.9164076307750344 0.9969524853617732 1.9183893288093297 1.001430360727729 1.92044724599879 1.0056033594730236 C 1.9227052384705599 1.0104337484316184 1.9249060665759545 1.0149211511919698 1.92702114813179 1.018865492471769 C 1.9366247616826053 1.0366721925972393 1.9415980615571349 1.0393303356336259 1.9459425534015504 1.0393303356336259 L 1.9461426286838601 1.0393303356336259 L 1.9513160038406978 1.0393303356336259 C 1.9548887767390664 1.0393303356336259 1.9598906587967828 1.036900850062735 1.9696086010803455 1.018865492471769 C 1.9717236826361797 1.0149211511919698 1.973953092924761 1.0102908375156834 1.976211085396531 1.0055176129234629 C 1.9781546738532425 1.001344614178168 1.980155426676329 0.9969429579673774 1.982156179499417 0.9920839868255958 C 1.997336032654006 0.9567387379229715 2.00752324778848 0.9194529533514659 2.012424711494398 0.8812994447929735 C 2.0130535195245116 0.8744397208281053 2.0133679235395685 0.8693235100376411 2.0133679235395685 0.8647217785445418 L 2.0133679235395685 0.12087046110414047 C 2.0133679235395685 0.09769031053952319 1.982584912247223 0.01428750000000012 1.9508586889097064 0.01428750000000012 L 1.949858312498163 0.01428750000000012 L 1.9467142723475974 0.01428750000000012 C 1.9147879737277727 0.01428750000000012 1.8832904078557537 0.09763314617314928 1.8832904078557537 0.12081329673776656 L 1.8832904078557537 0.8647503607277287 C 1.8832904078557537 0.8693520922208279 1.8836048118708109 0.8744683030112922 1.8842336199009233 0.8813280269761604 C 1.8891192877335965 0.9195031217537161 1.8993069936792524 0.9568099429598058 1.914502151895904 0.9921697333751565 Z" fill="#c84449" transform="matrix(1,0,0,1,0,0)" fill-rule="nonzero"></path></g></g><g><path d=" M 0.10035000000000001 0.3445349999999999 Q 0.083625 0.34007499999999996 0.06244000000000001 0.3261374999999999 Q 0.04125500000000001 0.3121999999999999 0.025645 0.2904574999999999 Q 0.010035 0.2687149999999999 0.010035 0.24195499999999992 Q 0.010035 0.22968999999999995 0.014495000000000001 0.21742499999999992 Q 0.014495000000000001 0.21630999999999995 0.015052500000000002 0.20961999999999992 Q 0.015610000000000002 0.20292999999999994 0.016725 0.19846999999999992 Q 0.028990000000000002 0.14271999999999996 0.07359 0.10648249999999992 Q 0.11819000000000002 0.07024499999999989 0.18286000000000002 0.05017499999999986 Q 0.24753000000000003 0.030104999999999937 0.31777500000000003 0.025644999999999918 Q 0.33115500000000003 0.02452999999999994 0.34453500000000004 0.02452999999999994 Q 0.35791500000000004 0.02452999999999994 0.37129500000000004 0.02452999999999994 Q 0.44934500000000005 0.02452999999999994 0.5262800000000001 0.03456499999999996 Q 0.6032150000000001 0.04459999999999986 0.6662125000000001 0.05407749999999989 Q 0.72921 0.06355499999999992 0.766005 0.0646699999999999 Q 0.7972250000000001 0.03233499999999989 0.8117200000000001 0.02898999999999996 Q 0.815065 0.027874999999999872 0.8217550000000001 0.027874999999999872 Q 0.8340200000000001 0.027874999999999872 0.8440550000000001 0.03400749999999986 Q 0.8540900000000001 0.040139999999999953 0.8540900000000001 0.05128999999999995 Q 0.8540900000000001 0.06132499999999996 0.8451700000000001 0.07024499999999989 Q 0.837365 0.07804999999999995 0.82064 0.08919999999999995 Q 0.803915 0.10034999999999994 0.788305 0.11707499999999993 Q 0.766005 0.13937499999999992 0.7481650000000001 0.1672499999999999 Q 0.7303250000000001 0.19512499999999994 0.7303250000000001 0.2207699999999999 Q 0.7303250000000001 0.2397249999999999 0.739245 0.2531049999999999 Q 0.7414750000000001 0.2553349999999999 0.7414750000000001 0.25756499999999993 Q 0.7414750000000001 0.2664849999999999 0.7325550000000001 0.2664849999999999 Q 0.7247500000000001 0.2664849999999999 0.7158300000000001 0.25756499999999993 Q 0.70691 0.24641499999999994 0.70691 0.20961999999999992 Q 0.70691 0.18731999999999993 0.7113700000000001 0.1616749999999999 Q 0.7158300000000001 0.13602999999999987 0.7269800000000001 0.11484499999999986 Q 0.7314400000000001 0.10703999999999991 0.7398025 0.09644749999999991 Q 0.7481650000000001 0.0858549999999999 0.7526250000000001 0.08027999999999991 Q 0.6723450000000001 0.07916499999999993 0.5898350000000001 0.07135999999999987 Q 0.507325 0.06355499999999992 0.42704500000000006 0.06355499999999992 Q 0.38913500000000006 0.06355499999999992 0.342305 0.06857249999999993 Q 0.29547500000000004 0.07358999999999993 0.24641500000000002 0.08473999999999993 Q 0.19735500000000003 0.09588999999999992 0.154985 0.11651749999999994 Q 0.112615 0.13714499999999996 0.08251000000000001 0.1672499999999999 Q 0.05240500000000001 0.19735499999999995 0.043485 0.2397249999999999 Q 0.042370000000000005 0.24418499999999993 0.0418125 0.24752999999999992 Q 0.04125500000000001 0.2508749999999999 0.04125500000000001 0.25421999999999995 Q 0.04125500000000001 0.27540499999999996 0.05407750000000001 0.28989999999999994 Q 0.0669 0.3043949999999999 0.083625 0.31387249999999994 Q 0.10035000000000001 0.3233499999999999 0.10927 0.3311549999999999 Q 0.11707500000000001 0.33561499999999994 0.11707500000000001 0.34007499999999996 Q 0.11707500000000001 0.3445349999999999 0.1120575 0.34564999999999996 Q 0.10704000000000001 0.34676499999999993 0.10035000000000001 0.3445349999999999 M 0.21073500000000003 0.70245 Q 0.20739000000000002 0.70245 0.19735500000000003 0.70022 Q 0.18732000000000001 0.69799 0.1784 0.694645 Q 0.16948000000000002 0.6913 0.16836500000000001 0.68684 Q 0.16502000000000003 0.665655 0.17895750000000002 0.6260724999999999 Q 0.192895 0.58649 0.2157525 0.5385449999999999 Q 0.23861000000000002 0.4905999999999999 0.26369750000000003 0.4426549999999999 Q 0.288785 0.39470999999999995 0.30997 0.35624249999999996 Q 0.33115500000000003 0.3177749999999999 0.34119000000000005 0.29770499999999994 Q 0.35011000000000003 0.27874999999999994 0.35011000000000003 0.2664849999999999 Q 0.35011000000000003 0.2609099999999999 0.34955250000000004 0.2581224999999999 Q 0.34899500000000006 0.2553349999999999 0.34788 0.2531049999999999 Q 0.35011000000000003 0.2397249999999999 0.364605 0.21742499999999992 Q 0.37910000000000005 0.19512499999999994 0.40028500000000006 0.1728249999999999 Q 0.42147000000000007 0.1505249999999999 0.4454425 0.13547249999999988 Q 0.469415 0.12041999999999997 0.49171500000000007 0.12041999999999997 Q 0.49840500000000004 0.12041999999999997 0.5151300000000001 0.12543749999999987 Q 0.5318550000000001 0.13045499999999988 0.545235 0.14160499999999987 Q 0.5586150000000001 0.15275499999999997 0.556385 0.17059499999999994 Q 0.5485800000000001 0.16501999999999994 0.5430050000000001 0.16501999999999994 Q 0.51736 0.16501999999999994 0.48725500000000005 0.18954999999999994 Q 0.45715000000000006 0.21407999999999994 0.42537250000000004 0.2553349999999999 Q 0.39359500000000003 0.2965899999999999 0.36293250000000005 0.34564999999999996 Q 0.33227 0.39470999999999995 0.30551 0.4443275 Q 0.27875000000000005 0.49394499999999997 0.25868 0.5357575 Q 0.23861000000000002 0.5775699999999999 0.22746000000000002 0.603215 Q 0.22300000000000003 0.6143649999999999 0.22077000000000002 0.623285 Q 0.21854 0.632205 0.21854 0.63778 Q 0.21854 0.6533899999999999 0.22969000000000003 0.6533899999999999 Q 0.237495 0.6533899999999999 0.24641500000000002 0.6472574999999999 Q 0.25533500000000003 0.641125 0.26314000000000004 0.632205 Q 0.275405 0.61771 0.28544 0.6048875 Q 0.29547500000000004 0.592065 0.30328000000000005 0.594295 Q 0.304395 0.59541 0.304395 0.59764 Q 0.304395 0.6043299999999999 0.29770500000000005 0.61325 Q 0.291015 0.62217 0.28990000000000005 0.623285 Q 0.28098 0.634435 0.26815750000000005 0.6533899999999999 Q 0.25533500000000003 0.672345 0.24084000000000003 0.6873975 Q 0.22634500000000002 0.70245 0.21073500000000003 0.70245 M 0.5664183666992187 0.6857249999999999 Q 0.5474633666992188 0.6857249999999999 0.5329683666992188 0.6773625 Q 0.5184733666992187 0.6689999999999999 0.5128983666992187 0.645585 Q 0.5095533666992187 0.63332 0.5095533666992187 0.6210549999999999 Q 0.5095533666992187 0.5876049999999999 0.5268358666992188 0.5558274999999999 Q 0.5441183666992188 0.5240499999999999 0.5675333666992187 0.49673249999999997 Q 0.5909483666992188 0.4694149999999999 0.6076733666992188 0.45045999999999997 Q 0.6165933666992187 0.44153999999999993 0.6283008666992187 0.42704499999999995 Q 0.6400083666992188 0.41255 0.6400083666992188 0.39805499999999994 Q 0.6400083666992188 0.38913499999999995 0.6310883666992188 0.38077249999999996 Q 0.6221683666992188 0.37240999999999996 0.5987533666992187 0.3690649999999999 Q 0.5853733666992188 0.36683499999999997 0.5736658666992187 0.36516249999999995 Q 0.5619583666992187 0.3634899999999999 0.5496933666992188 0.3634899999999999 Q 0.5184733666992187 0.40585999999999994 0.4889258666992188 0.44878749999999995 Q 0.4593783666992187 0.49171499999999996 0.42592836669921874 0.5329699999999999 Q 0.41812336669921873 0.540775 0.41254836669921874 0.540775 Q 0.40585836669921876 0.540775 0.40585836669921876 0.5340849999999999 Q 0.40585836669921876 0.527395 0.41254836669921874 0.520705 Q 0.4727583666992188 0.44711499999999993 0.5162433666992188 0.3634899999999999 Q 0.5106683666992188 0.3634899999999999 0.4995183666992188 0.36293249999999994 Q 0.48836836669921874 0.36237499999999995 0.48167836669921876 0.3612599999999999 Q 0.47387336669921876 0.35902999999999996 0.46941336669921874 0.35456999999999994 Q 0.4649533666992187 0.3501099999999999 0.4649533666992187 0.34564999999999996 Q 0.4649533666992187 0.33895999999999993 0.4705283666992187 0.33784499999999995 Q 0.48502336669921875 0.33338499999999993 0.5017483666992187 0.32446499999999995 Q 0.5184733666992187 0.31554499999999996 0.5329683666992188 0.30104999999999993 Q 0.5485783666992188 0.2854399999999999 0.5619583666992187 0.26815749999999994 Q 0.5753383666992188 0.2508749999999999 0.5831433666992187 0.24195499999999992 Q 0.5909483666992188 0.23637999999999992 0.5998683666992187 0.23637999999999992 Q 0.6054433666992187 0.23637999999999992 0.6104608666992187 0.2397249999999999 Q 0.6154783666992187 0.24306999999999995 0.6154783666992187 0.24975999999999993 Q 0.6154783666992187 0.25756499999999993 0.6087883666992188 0.26982999999999996 Q 0.5987533666992187 0.2854399999999999 0.5870458666992188 0.3043949999999999 Q 0.5753383666992188 0.3233499999999999 0.5653033666992188 0.33895999999999993 Q 0.5853733666992188 0.34007499999999996 0.6054433666992187 0.34118999999999994 Q 0.6255133666992188 0.3423049999999999 0.6466983666992188 0.3423049999999999 Q 0.6578483666992188 0.3423049999999999 0.6684408666992188 0.3417474999999999 Q 0.6790333666992188 0.34118999999999994 0.6901833666992188 0.34118999999999994 Q 0.7236333666992187 0.34118999999999994 0.7236333666992187 0.3579149999999999 Q 0.7236333666992187 0.3690649999999999 0.7119258666992188 0.3852324999999999 Q 0.7002183666992188 0.4013999999999999 0.6834933666992188 0.4203549999999999 Q 0.6455833666992188 0.4638399999999999 0.6188233666992188 0.5117849999999999 Q 0.5920633666992188 0.55973 0.5831433666992187 0.585375 Q 0.5742233666992187 0.612135 0.5742233666992187 0.6255149999999999 Q 0.5742233666992187 0.6522749999999999 0.5954083666992187 0.6522749999999999 Q 0.6143633666992188 0.6522749999999999 0.6416808666992188 0.63332 Q 0.6689983666992187 0.6143649999999999 0.6979883666992188 0.5870474999999999 Q 0.7269783666992188 0.55973 0.7503933666992189 0.5335274999999999 Q 0.7738083666992188 0.5073249999999999 0.7838433666992188 0.49394499999999997 Q 0.7860733666992188 0.4905999999999999 0.7905333666992187 0.4905999999999999 Q 0.7949933666992188 0.4905999999999999 0.7983383666992188 0.49450249999999996 Q 0.8016833666992188 0.498405 0.7983383666992188 0.50398 Q 0.7860733666992188 0.5229349999999999 0.7626583666992188 0.5513675 Q 0.7392433666992188 0.5798 0.7102533666992188 0.607675 Q 0.6812633666992187 0.63555 0.6533883666992188 0.65562 Q 0.6388933666992187 0.66677 0.6138058666992188 0.6762475 Q 0.5887183666992187 0.6857249999999999 0.5664183666992187 0.6857249999999999 M 0.9455472216796875 0.28432499999999994 Q 0.9310522216796875 0.28432499999999994 0.9154422216796876 0.28153749999999994 Q 0.8998322216796875 0.27874999999999994 0.8998322216796875 0.2609099999999999 Q 0.8998322216796875 0.25756499999999993 0.9148847216796875 0.2452999999999999 Q 0.9299372216796875 0.23303499999999994 0.9461047216796875 0.22021249999999992 Q 0.9622722216796875 0.2073899999999999 0.9656172216796876 0.20515999999999995 Q 0.9845722216796875 0.18954999999999994 0.9890322216796875 0.18954999999999994 Q 0.9946072216796875 0.18954999999999994 0.9890322216796875 0.20404499999999992 Q 0.9834572216796875 0.2185399999999999 0.9834572216796875 0.22968999999999995 Q 0.9834572216796875 0.23526499999999995 0.9767672216796875 0.24864499999999995 Q 0.9700772216796876 0.26202499999999995 0.9611572216796875 0.27317499999999995 Q 0.9522372216796875 0.28432499999999994 0.9455472216796875 0.28432499999999994 M 0.8240122216796875 0.683495 Q 0.8039422216796875 0.683495 0.7877747216796875 0.6745749999999999 Q 0.7716072216796875 0.665655 0.7638022216796875 0.641125 Q 0.7626872216796875 0.63778 0.7621297216796875 0.634435 Q 0.7615722216796875 0.6310899999999999 0.7615722216796875 0.62663 Q 0.7615722216796875 0.6043299999999999 0.7716072216796875 0.5708799999999999 Q 0.7816422216796876 0.53743 0.7961372216796875 0.5062099999999999 Q 0.7894472216796875 0.51513 0.7805272216796875 0.5279524999999999 Q 0.7716072216796875 0.540775 0.7548822216796875 0.5608449999999999 Q 0.7504222216796875 0.565305 0.7448472216796875 0.565305 Q 0.7370422216796875 0.565305 0.7370422216796875 0.5563849999999999 Q 0.7370422216796875 0.5496949999999999 0.7415022216796875 0.5452349999999999 Q 0.7704922216796875 0.50844 0.7933497216796875 0.47944999999999993 Q 0.8162072216796875 0.45045999999999997 0.8273572216796875 0.43038999999999994 Q 0.8273572216796875 0.42927499999999996 0.8267997216796875 0.4287175 Q 0.8262422216796875 0.42816 0.8262422216796875 0.42704499999999995 Q 0.8262422216796875 0.42369999999999997 0.8295872216796876 0.41700999999999994 Q 0.8385072216796875 0.39024999999999993 0.8479847216796875 0.3718524999999999 Q 0.8574622216796876 0.35345499999999996 0.8686122216796875 0.35122499999999995 Q 0.8708422216796875 0.35122499999999995 0.8730722216796876 0.35066749999999997 Q 0.8753022216796875 0.3501099999999999 0.8775322216796875 0.3501099999999999 Q 0.8897972216796876 0.3501099999999999 0.8998322216796875 0.3556849999999999 Q 0.9098672216796875 0.3612599999999999 0.9098672216796875 0.37240999999999996 Q 0.9098672216796875 0.3824449999999999 0.9026197216796875 0.39693999999999996 Q 0.8953722216796876 0.41143499999999994 0.8842222216796876 0.43261999999999995 Q 0.8596922216796875 0.48390999999999995 0.8401797216796875 0.5257225 Q 0.8206672216796875 0.5675349999999999 0.8184372216796875 0.594295 Q 0.8173222216796875 0.5987549999999999 0.8173222216796875 0.6026575 Q 0.8173222216796875 0.60656 0.8173222216796875 0.61102 Q 0.8173222216796875 0.65562 0.8463122216796876 0.65562 Q 0.8641522216796875 0.65562 0.8920272216796875 0.6361074999999999 Q 0.9199022216796875 0.616595 0.9488922216796876 0.5881624999999999 Q 0.9778822216796875 0.55973 1.0018547216796876 0.5335274999999999 Q 1.0258272216796875 0.5073249999999999 1.0347472216796876 0.49394499999999997 Q 1.0380922216796875 0.4905999999999999 1.0414372216796877 0.4905999999999999 Q 1.0458972216796876 0.4905999999999999 1.0486847216796875 0.49394499999999997 Q 1.0514722216796875 0.49728999999999995 1.0492422216796875 0.5028649999999999 Q 1.0392072216796875 0.52182 1.0152347216796875 0.5502524999999999 Q 0.9912622216796876 0.578685 0.9617147216796875 0.6071175 Q 0.9321672216796875 0.63555 0.9042922216796875 0.65562 Q 0.8897972216796876 0.66677 0.8680547216796874 0.6751325 Q 0.8463122216796876 0.683495 0.8240122216796875 0.683495 M 0.8340619213867189 1.0536750000000001 Q 0.8206819213867188 1.0536750000000001 0.8206819213867188 1.042525 Q 0.8206819213867188 1.038065 0.8240269213867188 1.03026 Q 0.8374069213867188 1.0012699999999999 0.8619369213867188 0.9438475 Q 0.8864669213867188 0.886425 0.9160144213867188 0.8122775 Q 0.9455619213867188 0.73813 0.9756669213867188 0.66008 Q 1.0024269213867187 0.59095 1.027514421386719 0.525165 Q 1.0526019213867188 0.45937999999999996 1.069326921386719 0.40641749999999993 Q 1.0860519213867188 0.35345499999999996 1.0860519213867188 0.32446499999999995 Q 1.0860519213867188 0.31554499999999996 1.0983169213867188 0.31387249999999994 Q 1.1105819213867187 0.3121999999999999 1.121731921386719 0.3121999999999999 Q 1.1585269213867189 0.3121999999999999 1.1585269213867189 0.3367299999999999 Q 1.1585269213867189 0.35679999999999995 1.1362269213867189 0.38913499999999995 Q 1.1161569213867188 0.42146999999999996 1.101661921386719 0.4554775 Q 1.0871669213867188 0.48948499999999995 1.0726719213867189 0.525165 Q 1.0994319213867187 0.48948499999999995 1.122846921386719 0.45492 Q 1.146261921386719 0.4203549999999999 1.177481921386719 0.3958249999999999 Q 1.2020119213867189 0.3768699999999999 1.2259844213867188 0.36516249999999995 Q 1.2499569213867188 0.35345499999999996 1.2778319213867189 0.35345499999999996 Q 1.306821921386719 0.35345499999999996 1.3358119213867188 0.36739249999999996 Q 1.3648019213867189 0.38132999999999995 1.3692619213867188 0.41143499999999994 Q 1.3703769213867187 0.4147799999999999 1.3703769213867187 0.41868249999999996 Q 1.3703769213867187 0.42258499999999993 1.3703769213867187 0.4259299999999999 Q 1.3703769213867187 0.46495499999999995 1.347519421386719 0.5023074999999999 Q 1.3246619213867188 0.5396599999999999 1.293441921386719 0.56865 Q 1.2622219213867187 0.59764 1.2354619213867188 0.6154799999999999 Q 1.2131619213867189 0.62886 1.1813844213867188 0.64447 Q 1.1496069213867188 0.66008 1.1144844213867189 0.67123 Q 1.079361921386719 0.68238 1.0470269213867187 0.68238 Q 1.026956921386719 0.68238 1.0135769213867187 0.67792 Q 0.9990819213867188 0.71137 0.9801269213867189 0.7643325 Q 0.9611719213867188 0.817295 0.9444469213867188 0.8685849999999999 Q 0.9366419213867189 0.8908849999999999 0.9388719213867188 0.9048225 Q 0.9411019213867188 0.91876 0.9332969213867188 0.939945 Q 0.9266069213867189 0.962245 0.9188019213867188 0.9828725 Q 0.9109969213867188 1.0035 0.9009619213867188 1.022455 Q 0.8987319213867189 1.026915 0.8870244213867188 1.03472 Q 0.8753169213867188 1.042525 0.8602644213867188 1.0481 Q 0.8452119213867189 1.0536750000000001 0.8340619213867189 1.0536750000000001 M 1.0224969213867188 0.66008 Q 1.058176921386719 0.66008 1.0972019213867188 0.643355 Q 1.1362269213867189 0.62663 1.1741369213867188 0.5987549999999999 Q 1.2120469213867189 0.5708799999999999 1.242709421386719 0.5379875 Q 1.273371921386719 0.505095 1.2923269213867188 0.47387499999999994 Q 1.3146269213867188 0.43819499999999995 1.3146269213867188 0.40808999999999995 Q 1.3146269213867188 0.37352499999999994 1.2845219213867187 0.37352499999999994 Q 1.2767169213867189 0.37352499999999994 1.265566921386719 0.37631249999999994 Q 1.254416921386719 0.37909999999999994 1.2399219213867188 0.38690499999999994 Q 1.1808269213867189 0.41812499999999997 1.1429169213867187 0.45993749999999994 Q 1.1050069213867189 0.5017499999999999 1.0782469213867187 0.551925 Q 1.0514869213867188 0.6021 1.0224969213867188 0.66008" fill="#382d5e" fill-rule="nonzero"></path></g><g><path d=" M 2.696827139348852 0.70245 Q 2.694597139348852 0.70245 2.684004639348852 0.70022 Q 2.673412139348852 0.69799 2.663934639348852 0.694645 Q 2.654457139348852 0.6913 2.653342139348852 0.68684 Q 2.651112139348852 0.665655 2.6644921393488517 0.62663 Q 2.677872139348852 0.5876049999999999 2.7007296393488516 0.5391024999999999 Q 2.7235871393488518 0.4905999999999999 2.7481171393488517 0.44376999999999994 Q 2.743657139348852 0.44376999999999994 2.7386396393488517 0.44321249999999995 Q 2.7336221393488516 0.4426549999999999 2.7280471393488517 0.4426549999999999 Q 2.714667139348852 0.44042499999999996 2.714667139348852 0.43038999999999994 Q 2.714667139348852 0.42481499999999994 2.7269321393488517 0.42481499999999994 Q 2.735852139348852 0.42481499999999994 2.742542139348852 0.42537249999999993 Q 2.7492321393488517 0.4259299999999999 2.757037139348852 0.4259299999999999 Q 2.779337139348852 0.38355999999999996 2.7982921393488516 0.34955249999999993 Q 2.8172471393488516 0.31554499999999996 2.825052139348852 0.29770499999999994 Q 2.8317421393488518 0.2854399999999999 2.8339721393488517 0.2770774999999999 Q 2.8362021393488517 0.2687149999999999 2.8362021393488517 0.2642549999999999 Q 2.8362021393488517 0.25756499999999993 2.8339721393488517 0.2531049999999999 Q 2.8362021393488517 0.2397249999999999 2.8501396393488516 0.21742499999999992 Q 2.8640771393488516 0.19512499999999994 2.8852621393488516 0.1728249999999999 Q 2.9064471393488516 0.1505249999999999 2.930977139348852 0.13547249999999988 Q 2.955507139348852 0.12041999999999997 2.976692139348852 0.12041999999999997 Q 2.9833821393488518 0.12041999999999997 2.9973196393488517 0.12432249999999989 Q 3.0112571393488516 0.12822499999999992 3.024637139348852 0.13602999999999987 Q 3.0380171393488515 0.14383499999999994 3.041362139348852 0.15832999999999997 Q 3.042477139348852 0.16055999999999993 3.042477139348852 0.16501999999999994 Q 3.042477139348852 0.16836499999999988 3.039132139348852 0.16836499999999988 Q 3.036902139348852 0.16836499999999988 3.032999639348852 0.1666924999999999 Q 3.0290971393488517 0.16501999999999994 3.0268671393488518 0.16501999999999994 Q 3.002337139348852 0.16501999999999994 2.9739046393488517 0.18787749999999992 Q 2.9454721393488517 0.21073499999999995 2.915367139348852 0.24864499999999995 Q 2.8852621393488516 0.28655499999999995 2.855714639348852 0.33282749999999994 Q 2.826167139348852 0.37909999999999994 2.799407139348852 0.4259299999999999 Q 2.8551571393488517 0.42369999999999997 2.917597139348852 0.41199249999999993 Q 2.980037139348852 0.40028499999999995 3.041362139348852 0.38021499999999997 Q 3.102687139348852 0.36014499999999994 3.155092139348852 0.3311549999999999 Q 3.2074971393488516 0.30216499999999996 3.2431771393488518 0.26536999999999994 Q 3.282202139348852 0.22411499999999995 3.282202139348852 0.1806299999999999 Q 3.282202139348852 0.14829499999999995 3.257672139348852 0.12041999999999997 Q 3.233142139348852 0.09254499999999988 3.1807371393488517 0.07804999999999995 Q 3.149517139348852 0.06912999999999991 3.109934639348852 0.0646699999999999 Q 3.0703521393488518 0.060209999999999875 3.024637139348852 0.060209999999999875 Q 2.953277139348852 0.060209999999999875 2.878014639348852 0.07247499999999996 Q 2.802752139348852 0.08473999999999993 2.736967139348852 0.10982749999999997 Q 2.671182139348852 0.1349149999999999 2.6265821393488515 0.1728249999999999 Q 2.5819821393488516 0.21073499999999995 2.5730621393488518 0.26313999999999993 Q 2.569717139348852 0.28989999999999994 2.5830971393488515 0.30550999999999995 Q 2.5964771393488517 0.32111999999999996 2.615989639348852 0.32948249999999996 Q 2.635502139348852 0.33784499999999995 2.6466521393488516 0.3445349999999999 Q 2.654457139348852 0.35122499999999995 2.654457139348852 0.3556849999999999 Q 2.654457139348852 0.3634899999999999 2.6399621393488517 0.3612599999999999 Q 2.6243521393488516 0.3579149999999999 2.601494639348852 0.34564999999999996 Q 2.5786371393488516 0.33338499999999993 2.5613546393488518 0.31164249999999993 Q 2.544072139348852 0.28989999999999994 2.544072139348852 0.2609099999999999 Q 2.544072139348852 0.25644999999999996 2.5446296393488517 0.25198999999999994 Q 2.545187139348852 0.24752999999999992 2.546302139348852 0.24306999999999995 Q 2.546302139348852 0.24195499999999992 2.5457446393488516 0.23582249999999993 Q 2.545187139348852 0.22968999999999995 2.545187139348852 0.22522999999999993 Q 2.5518771393488517 0.19066499999999992 2.579194639348852 0.16000249999999994 Q 2.606512139348852 0.1293399999999999 2.641634639348852 0.10536749999999995 Q 2.676757139348852 0.08139499999999988 2.7068621393488517 0.06689999999999996 Q 2.759267139348852 0.04125499999999993 2.8328571393488517 0.026202499999999906 Q 2.9064471393488516 0.011149999999999882 2.9867271393488517 0.011149999999999882 Q 3.0357871393488516 0.011149999999999882 3.0842896393488517 0.017839999999999856 Q 3.132792139348852 0.02452999999999994 3.1785071393488518 0.039024999999999865 Q 3.242062139348852 0.060209999999999875 3.2771846393488517 0.10425249999999997 Q 3.3123071393488517 0.14829499999999995 3.3089621393488517 0.19623999999999991 Q 3.305617139348852 0.24195499999999992 3.2771846393488517 0.27874999999999994 Q 3.2487521393488517 0.31554499999999996 3.204709639348852 0.34286249999999996 Q 3.1606671393488517 0.37017999999999995 3.1077046393488517 0.38969249999999994 Q 3.0547421393488516 0.40920499999999993 3.001222139348852 0.42146999999999996 Q 2.949932139348852 0.43261999999999995 2.8925096393488516 0.43819499999999995 Q 2.8350871393488517 0.44376999999999994 2.7893721393488518 0.444885 Q 2.762612139348852 0.49283 2.7419846393488516 0.5351999999999999 Q 2.721357139348852 0.5775699999999999 2.7113221393488516 0.603215 Q 2.7024021393488518 0.627745 2.7024021393488518 0.63778 Q 2.7024021393488518 0.6533899999999999 2.714667139348852 0.6533899999999999 Q 2.7302771393488516 0.6533899999999999 2.7481171393488517 0.632205 Q 2.760382139348852 0.61771 2.770974639348852 0.6048875 Q 2.781567139348852 0.592065 2.7893721393488518 0.594295 Q 2.7904871393488517 0.59541 2.7904871393488517 0.59764 Q 2.7904871393488517 0.603215 2.782682139348852 0.6126925 Q 2.7748771393488516 0.62217 2.7737621393488516 0.623285 Q 2.765957139348852 0.634435 2.753134639348852 0.6533899999999999 Q 2.740312139348852 0.672345 2.726374639348852 0.6873975 Q 2.712437139348852 0.70245 2.696827139348852 0.70245 M 3.2242499054621327 0.683495 Q 3.177419905462133 0.683495 3.159022405462133 0.66008 Q 3.1406249054621327 0.6366649999999999 3.1406249054621327 0.6021 Q 3.1406249054621327 0.569765 3.155677405462133 0.520705 Q 3.170729905462133 0.471645 3.195259905462133 0.4147799999999999 Q 3.219789905462133 0.3579149999999999 3.248222405462133 0.3016074999999999 Q 3.276654905462133 0.2452999999999999 3.305087405462133 0.19791249999999994 Q 3.3335199054621327 0.1505249999999999 3.3547049054621327 0.12153499999999995 Q 3.3758899054621327 0.09365999999999997 3.400419905462133 0.06578499999999987 Q 3.424949905462133 0.03790999999999989 3.455054905462133 0.018954999999999944 Q 3.485159905462133 -1.1102230246251565e-16 3.523069905462133 -1.1102230246251565e-16 Q 3.548714905462133 -1.1102230246251565e-16 3.567112405462133 0.013937499999999936 Q 3.585509905462133 0.027874999999999872 3.585509905462133 0.055749999999999966 Q 3.585509905462133 0.06689999999999996 3.581607405462133 0.08139499999999988 Q 3.577704905462133 0.09588999999999992 3.568784905462133 0.11149999999999993 Q 3.500769905462133 0.22968999999999995 3.406552405462133 0.33003999999999994 Q 3.3123349054621327 0.43038999999999994 3.207524905462133 0.516245 Q 3.2030649054621327 0.5329699999999999 3.199162405462133 0.5463499999999999 Q 3.195259905462133 0.55973 3.193029905462133 0.5675349999999999 Q 3.191914905462133 0.57311 3.191914905462133 0.5792425 Q 3.191914905462133 0.585375 3.191914905462133 0.59095 Q 3.191914905462133 0.61771 3.200834905462133 0.63778 Q 3.209754905462133 0.6578499999999999 3.230939905462133 0.6578499999999999 Q 3.251009905462133 0.6578499999999999 3.280557405462133 0.6383375 Q 3.3101049054621328 0.618825 3.340209905462133 0.5903925 Q 3.370314905462133 0.56196 3.394844905462133 0.5351999999999999 Q 3.419374905462133 0.50844 3.429409905462133 0.49394499999999997 Q 3.432754905462133 0.4905999999999999 3.436099905462133 0.4905999999999999 Q 3.4405599054621328 0.4905999999999999 3.443347405462133 0.49505999999999994 Q 3.446134905462133 0.49951999999999996 3.442789905462133 0.5062099999999999 Q 3.431639905462133 0.525165 3.407109905462133 0.55304 Q 3.382579905462133 0.580915 3.352474905462133 0.6093474999999999 Q 3.322369905462133 0.63778 3.294494905462133 0.658965 Q 3.259929905462133 0.683495 3.2242499054621327 0.683495 M 3.2231349054621328 0.471645 Q 3.265504905462133 0.4426549999999999 3.3112199054621327 0.39638249999999997 Q 3.356934905462133 0.3501099999999999 3.400977405462133 0.29547499999999993 Q 3.445019905462133 0.24083999999999994 3.481257405462133 0.18731999999999993 Q 3.517494905462133 0.13379999999999992 3.539794905462133 0.09031499999999992 Q 3.546484905462133 0.07804999999999995 3.549272405462133 0.06857249999999993 Q 3.552059905462133 0.0590949999999999 3.552059905462133 0.05128999999999995 Q 3.552059905462133 0.030104999999999937 3.534219905462133 0.030104999999999937 Q 3.518609905462133 0.030104999999999937 3.495194905462133 0.04682999999999993 Q 3.434984905462133 0.09365999999999997 3.383694905462133 0.1666924999999999 Q 3.3324049054621327 0.2397249999999999 3.292264905462133 0.32000499999999993 Q 3.252124905462133 0.40028499999999995 3.2231349054621328 0.471645 M 3.724894705266821 0.683495 Q 3.705939705266821 0.683495 3.6897722052668205 0.6745749999999999 Q 3.6736047052668206 0.665655 3.6657997052668208 0.641125 Q 3.662454705266821 0.6310899999999999 3.662454705266821 0.61325 Q 3.662454705266821 0.5887199999999999 3.6691447052668207 0.558615 Q 3.6758347052668205 0.5285099999999999 3.683639705266821 0.5073249999999999 Q 3.6780647052668205 0.509555 3.6630122052668206 0.5268375 Q 3.6479597052668207 0.5441199999999999 3.6262172052668205 0.5680925 Q 3.6044747052668207 0.592065 3.5782722052668205 0.6160375 Q 3.5520697052668204 0.64001 3.5241947052668205 0.65562 Q 3.4963197052668207 0.67123 3.469559705266821 0.67123 Q 3.4517197052668207 0.67123 3.4316497052668207 0.6606375 Q 3.4115797052668206 0.650045 3.3993147052668204 0.63332 Q 3.382589705266821 0.61102 3.382589705266821 0.5876049999999999 Q 3.382589705266821 0.5575 3.4032172052668206 0.525165 Q 3.423844705266821 0.49283 3.456737205266821 0.46216749999999995 Q 3.489629705266821 0.4315049999999999 3.5269822052668207 0.40641749999999993 Q 3.5643347052668206 0.38132999999999995 3.5983422052668206 0.36404749999999997 Q 3.6323497052668205 0.34676499999999993 3.6535347052668206 0.34118999999999994 Q 3.6758347052668205 0.33449999999999996 3.703709705266821 0.33449999999999996 Q 3.7193197052668205 0.33449999999999996 3.7360447052668206 0.33840249999999994 Q 3.7527697052668207 0.3423049999999999 3.7639197052668205 0.35122499999999995 Q 3.7728397052668208 0.3556849999999999 3.7784147052668207 0.3634899999999999 Q 3.7839897052668205 0.37129499999999993 3.7839897052668205 0.38021499999999997 Q 3.7839897052668205 0.38913499999999995 3.7761847052668207 0.38578999999999997 Q 3.767264705266821 0.37240999999999996 3.7522122052668205 0.36850749999999993 Q 3.7371597052668206 0.36460499999999996 3.7215497052668205 0.36460499999999996 Q 3.6769497052668205 0.36460499999999996 3.6234297052668207 0.3935949999999999 Q 3.5699097052668205 0.42258499999999993 3.5275397052668205 0.46160999999999996 Q 3.5141597052668208 0.47275999999999996 3.4913022052668206 0.5000775 Q 3.468444705266821 0.527395 3.4494897052668207 0.55973 Q 3.4305347052668207 0.592065 3.4305347052668207 0.618825 Q 3.4305347052668207 0.63332 3.4383397052668205 0.64447 Q 3.4427997052668204 0.6522749999999999 3.4528347052668207 0.6522749999999999 Q 3.468444705266821 0.6522749999999999 3.4946472052668205 0.63555 Q 3.5208497052668206 0.618825 3.5487247052668205 0.5948525 Q 3.576599705266821 0.5708799999999999 3.5994572052668206 0.54858 Q 3.6223147052668208 0.52628 3.6323497052668205 0.516245 Q 3.637924705266821 0.51067 3.6540922052668208 0.4933875 Q 3.6702597052668207 0.47610499999999994 3.6892147052668207 0.45603499999999997 Q 3.7081697052668208 0.43596499999999994 3.7232222052668207 0.42146999999999996 Q 3.7382747052668206 0.4069749999999999 3.7427347052668205 0.4069749999999999 Q 3.748309705266821 0.4069749999999999 3.761132205266821 0.4097624999999999 Q 3.7739547052668208 0.41255 3.7828747052668206 0.41812499999999997 Q 3.791794705266821 0.42369999999999997 3.7862197052668205 0.43261999999999995 Q 3.7572297052668207 0.4749899999999999 3.739947205266821 0.5212625 Q 3.7226647052668205 0.5675349999999999 3.7193197052668205 0.594295 Q 3.7182047052668206 0.5987549999999999 3.7182047052668206 0.6026575 Q 3.7182047052668206 0.60656 3.7182047052668206 0.61102 Q 3.7182047052668206 0.65562 3.749424705266821 0.65562 Q 3.7661497052668205 0.65562 3.794024705266821 0.63555 Q 3.8218997052668207 0.6154799999999999 3.8508897052668205 0.5876049999999999 Q 3.879879705266821 0.55973 3.9038522052668205 0.5335274999999999 Q 3.9278247052668207 0.5073249999999999 3.9367447052668205 0.49394499999999997 Q 3.9400897052668205 0.4905999999999999 3.943434705266821 0.4905999999999999 Q 3.9478947052668207 0.4905999999999999 3.9512397052668207 0.49450249999999996 Q 3.9545847052668206 0.498405 3.9512397052668207 0.50398 Q 3.938974705266821 0.5240499999999999 3.9155597052668205 0.551925 Q 3.8921447052668205 0.5798 3.8631547052668207 0.607675 Q 3.834164705266821 0.63555 3.8062897052668205 0.65562 Q 3.791794705266821 0.66677 3.769494705266821 0.6751325 Q 3.7471947052668204 0.683495 3.724894705266821 0.683495 M 3.872077971868383 0.68684 Q 3.8642729718683833 0.68684 3.867617971868383 0.6790349999999999 Q 3.870962971868383 0.672345 3.879882971868383 0.6483725 Q 3.888802971868383 0.6244 3.900510471868383 0.59095 Q 3.912217971868383 0.5575 3.924482971868383 0.52182 Q 3.936747971868383 0.48613999999999996 3.947340471868383 0.45492 Q 3.957932971868383 0.42369999999999997 3.964622971868383 0.40585999999999994 Q 3.966852971868383 0.39916999999999997 3.969082971868383 0.38634749999999995 Q 3.9713129718683833 0.37352499999999994 3.978560471868383 0.36293249999999994 Q 3.985807971868383 0.35233999999999993 4.003647971868383 0.35233999999999993 Q 4.037097971868383 0.35233999999999993 4.037097971868383 0.36794999999999994 Q 4.037097971868383 0.37352499999999994 4.031522971868383 0.38690499999999994 Q 4.018142971868383 0.41700999999999994 4.002532971868383 0.45603499999999997 Q 3.986922971868383 0.49505999999999994 3.974657971868383 0.529625 Q 3.962392971868383 0.56419 3.955702971868383 0.583145 Q 3.966852971868383 0.5675349999999999 3.991940471868383 0.5385449999999999 Q 4.017027971868383 0.509555 4.048247971868383 0.47610499999999994 Q 4.079467971868383 0.4426549999999999 4.113475471868383 0.41143499999999994 Q 4.147482971868383 0.38021499999999997 4.177030471868383 0.3607024999999999 Q 4.206577971868383 0.34118999999999994 4.227762971868383 0.34118999999999994 Q 4.254522971868383 0.34118999999999994 4.254522971868383 0.37017999999999995 Q 4.254522971868383 0.38021499999999997 4.248947971868383 0.40028499999999995 Q 4.238912971868383 0.42816 4.223302971868383 0.45436249999999995 Q 4.207692971868383 0.48056499999999996 4.195427971868383 0.509555 Q 4.174242971868383 0.56196 4.170897971868383 0.594295 Q 4.169782971868383 0.5987549999999999 4.169782971868383 0.6026575 Q 4.169782971868383 0.60656 4.169782971868383 0.61102 Q 4.169782971868383 0.65562 4.1998879718683835 0.65562 Q 4.216612971868383 0.65562 4.2444879718683834 0.63555 Q 4.272362971868383 0.6154799999999999 4.301910471868383 0.5876049999999999 Q 4.331457971868383 0.55973 4.354872971868383 0.5335274999999999 Q 4.378287971868383 0.5073249999999999 4.387207971868383 0.49394499999999997 Q 4.390552971868383 0.4905999999999999 4.393897971868383 0.4905999999999999 Q 4.398357971868383 0.4905999999999999 4.401145471868383 0.49394499999999997 Q 4.403932971868383 0.49728999999999995 4.401702971868383 0.5028649999999999 Q 4.391667971868383 0.52182 4.367695471868383 0.5502524999999999 Q 4.343722971868383 0.578685 4.314732971868383 0.6071175 Q 4.285742971868383 0.63555 4.257867971868383 0.65562 Q 4.241142971868383 0.66677 4.216612971868383 0.67569 Q 4.192082971868383 0.6846099999999999 4.167552971868383 0.683495 Q 4.1363329718683834 0.6801499999999999 4.122952971868383 0.6617525 Q 4.109572971868383 0.643355 4.109572971868383 0.61771 Q 4.109572971868383 0.5876049999999999 4.121280471868383 0.5535975 Q 4.132987971868383 0.51959 4.147482971868383 0.48948499999999995 Q 4.161977971868383 0.45937999999999996 4.170897971868383 0.44376999999999994 Q 4.179817971868383 0.4259299999999999 4.179817971868383 0.41589499999999996 Q 4.179817971868383 0.4069749999999999 4.172012971868383 0.4069749999999999 Q 4.164207971868383 0.4069749999999999 4.148597971868383 0.41700999999999994 Q 4.132987971868383 0.42704499999999995 4.106227971868383 0.45157499999999995 Q 4.081697971868383 0.47275999999999996 4.053822971868383 0.5067674999999999 Q 4.0259479718683835 0.540775 3.999745471868383 0.5764549999999999 Q 3.9735429718683832 0.612135 3.954030471868383 0.63778 Q 3.934517971868383 0.6634249999999999 3.926712971868383 0.667885 Q 3.921137971868383 0.67123 3.901625471868383 0.6790349999999999 Q 3.882112971868383 0.68684 3.872077971868383 0.68684 M 4.322528716497289 0.68684 Q 4.314723716497289 0.68684 4.318068716497289 0.6790349999999999 Q 4.321413716497289 0.672345 4.3303337164972895 0.6483725 Q 4.339253716497289 0.6244 4.350961216497289 0.59095 Q 4.362668716497289 0.5575 4.3749337164972895 0.52182 Q 4.387198716497289 0.48613999999999996 4.397791216497289 0.45492 Q 4.408383716497289 0.42369999999999997 4.4150737164972895 0.40585999999999994 Q 4.4173037164972895 0.39916999999999997 4.419533716497289 0.38634749999999995 Q 4.421763716497289 0.37352499999999994 4.4290112164972895 0.36293249999999994 Q 4.4362587164972895 0.35233999999999993 4.454098716497289 0.35233999999999993 Q 4.487548716497289 0.35233999999999993 4.487548716497289 0.36794999999999994 Q 4.487548716497289 0.37352499999999994 4.481973716497289 0.38690499999999994 Q 4.468593716497289 0.41700999999999994 4.452983716497289 0.45603499999999997 Q 4.437373716497289 0.49505999999999994 4.425108716497289 0.529625 Q 4.41284371649729 0.56419 4.406153716497289 0.583145 Q 4.4173037164972895 0.5675349999999999 4.442391216497289 0.5385449999999999 Q 4.467478716497289 0.509555 4.498698716497289 0.47610499999999994 Q 4.529918716497289 0.4426549999999999 4.563926216497289 0.41143499999999994 Q 4.597933716497289 0.38021499999999997 4.627481216497289 0.3607024999999999 Q 4.6570287164972894 0.34118999999999994 4.6782137164972895 0.34118999999999994 Q 4.704973716497289 0.34118999999999994 4.704973716497289 0.37017999999999995 Q 4.704973716497289 0.38021499999999997 4.6993987164972895 0.40028499999999995 Q 4.689363716497289 0.42816 4.6737537164972895 0.45436249999999995 Q 4.658143716497289 0.48056499999999996 4.645878716497289 0.509555 Q 4.624693716497289 0.56196 4.621348716497289 0.594295 Q 4.620233716497289 0.5987549999999999 4.620233716497289 0.6026575 Q 4.620233716497289 0.60656 4.620233716497289 0.61102 Q 4.620233716497289 0.65562 4.65033871649729 0.65562 Q 4.667063716497289 0.65562 4.6949387164972896 0.63555 Q 4.722813716497289 0.6154799999999999 4.752361216497289 0.5876049999999999 Q 4.7819087164972895 0.55973 4.8053237164972895 0.5335274999999999 Q 4.8287387164972895 0.5073249999999999 4.837658716497289 0.49394499999999997 Q 4.841003716497289 0.4905999999999999 4.844348716497289 0.4905999999999999 Q 4.848808716497289 0.4905999999999999 4.851596216497289 0.49394499999999997 Q 4.854383716497289 0.49728999999999995 4.852153716497289 0.5028649999999999 Q 4.842118716497289 0.52182 4.818146216497289 0.5502524999999999 Q 4.794173716497289 0.578685 4.7651837164972894 0.6071175 Q 4.736193716497289 0.63555 4.708318716497289 0.65562 Q 4.691593716497289 0.66677 4.667063716497289 0.67569 Q 4.642533716497289 0.6846099999999999 4.618003716497289 0.683495 Q 4.5867837164972896 0.6801499999999999 4.573403716497289 0.6617525 Q 4.560023716497289 0.643355 4.560023716497289 0.61771 Q 4.560023716497289 0.5876049999999999 4.571731216497289 0.5535975 Q 4.583438716497289 0.51959 4.597933716497289 0.48948499999999995 Q 4.6124287164972895 0.45937999999999996 4.621348716497289 0.44376999999999994 Q 4.630268716497289 0.4259299999999999 4.630268716497289 0.41589499999999996 Q 4.630268716497289 0.4069749999999999 4.622463716497289 0.4069749999999999 Q 4.614658716497289 0.4069749999999999 4.599048716497289 0.41700999999999994 Q 4.583438716497289 0.42704499999999995 4.556678716497289 0.45157499999999995 Q 4.532148716497289 0.47275999999999996 4.5042737164972895 0.5067674999999999 Q 4.47639871649729 0.540775 4.4501962164972895 0.5764549999999999 Q 4.423993716497289 0.612135 4.404481216497289 0.63778 Q 4.384968716497289 0.6634249999999999 4.377163716497289 0.667885 Q 4.371588716497289 0.67123 4.352076216497289 0.6790349999999999 Q 4.332563716497289 0.68684 4.322528716497289 0.68684 M 4.921274461126195 0.68907 Q 4.871099461126195 0.68907 4.834304461126195 0.665655 Q 4.797509461126196 0.6422399999999999 4.797509461126196 0.594295 Q 4.797509461126196 0.56865 4.813119461126195 0.531855 Q 4.824269461126195 0.5062099999999999 4.854374461126195 0.47275999999999996 Q 4.884479461126196 0.43931 4.924619461126195 0.40753249999999996 Q 4.964759461126195 0.37575499999999995 5.006014461126195 0.35512749999999993 Q 5.047269461126195 0.33449999999999996 5.080719461126195 0.33449999999999996 Q 5.092984461126195 0.33449999999999996 5.103019461126196 0.33784499999999995 Q 5.121974461126196 0.3445349999999999 5.129221961126195 0.35902999999999996 Q 5.136469461126195 0.37352499999999994 5.136469461126195 0.38913499999999995 Q 5.136469461126195 0.40362999999999993 5.132009461126195 0.41700999999999994 Q 5.127549461126195 0.43038999999999994 5.120859461126195 0.44042499999999996 Q 5.100789461126196 0.47052999999999995 5.063436961126195 0.49394499999999997 Q 5.026084461126195 0.5173599999999999 4.987616961126196 0.53074 Q 4.949149461126195 0.5441199999999999 4.924619461126195 0.5463499999999999 L 4.922389461126195 0.5463499999999999 Q 4.907894461126196 0.5463499999999999 4.907894461126196 0.53743 Q 4.907894461126196 0.531855 4.9168144611261955 0.531855 Q 4.943574461126195 0.529625 4.984271961126195 0.5067674999999999 Q 5.0249694611261955 0.48390999999999995 5.056189461126195 0.45937999999999996 Q 5.069569461126195 0.44822999999999996 5.087966961126195 0.42816 Q 5.106364461126195 0.40808999999999995 5.106364461126195 0.38913499999999995 Q 5.106364461126195 0.3690649999999999 5.087409461126195 0.3690649999999999 Q 5.077374461126196 0.3690649999999999 5.066781961126195 0.37352499999999994 Q 5.056189461126195 0.37798499999999996 5.049499461126195 0.38021499999999997 Q 5.017164461126195 0.3958249999999999 4.9781394611261955 0.4287175 Q 4.939114461126195 0.46160999999999996 4.907336961126195 0.5023074999999999 Q 4.875559461126195 0.543005 4.863294461126196 0.58426 Q 4.859949461126195 0.5931799999999999 4.858834461126195 0.6015425 Q 4.857719461126195 0.6099049999999999 4.857719461126195 0.61771 Q 4.857719461126195 0.64447 4.875001961126196 0.65562 Q 4.892284461126195 0.66677 4.9168144611261955 0.66677 Q 4.953609461126195 0.66677 4.992634461126196 0.6506025 Q 5.031659461126195 0.634435 5.068454461126195 0.6087899999999999 Q 5.105249461126196 0.583145 5.135911961126196 0.5535975 Q 5.166574461126196 0.5240499999999999 5.187759461126196 0.4961749999999999 Q 5.191104461126195 0.49171499999999996 5.195564461126195 0.4911574999999999 Q 5.200024461126195 0.4905999999999999 5.201139461126195 0.49283 Q 5.205599461126195 0.49394499999999997 5.205599461126195 0.4989625 Q 5.205599461126195 0.50398 5.203369461126195 0.50844 Q 5.172149461126195 0.551925 5.128106961126195 0.5931799999999999 Q 5.084064461126196 0.634435 5.031101961126195 0.6617525 Q 4.9781394611261955 0.68907 4.921274461126195 0.68907 M 5.322640706243383 0.6857249999999999 Q 5.3036857062433835 0.6857249999999999 5.289190706243383 0.6773625 Q 5.274695706243383 0.6689999999999999 5.269120706243383 0.645585 Q 5.265775706243383 0.63332 5.265775706243383 0.6210549999999999 Q 5.265775706243383 0.5876049999999999 5.283058206243383 0.5558274999999999 Q 5.300340706243383 0.5240499999999999 5.323755706243383 0.49673249999999997 Q 5.347170706243383 0.4694149999999999 5.363895706243383 0.45045999999999997 Q 5.372815706243383 0.44153999999999993 5.384523206243383 0.42704499999999995 Q 5.396230706243383 0.41255 5.396230706243383 0.39805499999999994 Q 5.396230706243383 0.38913499999999995 5.387310706243383 0.38077249999999996 Q 5.378390706243383 0.37240999999999996 5.354975706243383 0.3690649999999999 Q 5.341595706243383 0.36683499999999997 5.329888206243383 0.36516249999999995 Q 5.318180706243383 0.3634899999999999 5.3059157062433835 0.3634899999999999 Q 5.274695706243383 0.40585999999999994 5.245148206243383 0.44878749999999995 Q 5.215600706243383 0.49171499999999996 5.182150706243383 0.5329699999999999 Q 5.1743457062433835 0.540775 5.168770706243383 0.540775 Q 5.162080706243383 0.540775 5.162080706243383 0.5340849999999999 Q 5.162080706243383 0.527395 5.168770706243383 0.520705 Q 5.228980706243383 0.44711499999999993 5.272465706243383 0.3634899999999999 Q 5.266890706243383 0.3634899999999999 5.255740706243383 0.36293249999999994 Q 5.244590706243383 0.36237499999999995 5.237900706243383 0.3612599999999999 Q 5.230095706243383 0.35902999999999996 5.225635706243383 0.35456999999999994 Q 5.2211757062433835 0.3501099999999999 5.2211757062433835 0.34564999999999996 Q 5.2211757062433835 0.33895999999999993 5.226750706243383 0.33784499999999995 Q 5.241245706243383 0.33338499999999993 5.257970706243383 0.32446499999999995 Q 5.274695706243383 0.31554499999999996 5.289190706243383 0.30104999999999993 Q 5.304800706243383 0.2854399999999999 5.318180706243383 0.26815749999999994 Q 5.331560706243383 0.2508749999999999 5.339365706243383 0.24195499999999992 Q 5.347170706243383 0.23637999999999992 5.356090706243383 0.23637999999999992 Q 5.361665706243383 0.23637999999999992 5.366683206243383 0.2397249999999999 Q 5.3717007062433835 0.24306999999999995 5.3717007062433835 0.24975999999999993 Q 5.3717007062433835 0.25756499999999993 5.365010706243383 0.26982999999999996 Q 5.354975706243383 0.2854399999999999 5.343268206243383 0.3043949999999999 Q 5.331560706243383 0.3233499999999999 5.321525706243383 0.33895999999999993 Q 5.341595706243383 0.34007499999999996 5.361665706243383 0.34118999999999994 Q 5.381735706243383 0.3423049999999999 5.402920706243383 0.3423049999999999 Q 5.4140707062433835 0.3423049999999999 5.424663206243383 0.3417474999999999 Q 5.4352557062433835 0.34118999999999994 5.446405706243383 0.34118999999999994 Q 5.4798557062433835 0.34118999999999994 5.4798557062433835 0.3579149999999999 Q 5.4798557062433835 0.3690649999999999 5.4681482062433835 0.3852324999999999 Q 5.4564407062433835 0.4013999999999999 5.439715706243383 0.4203549999999999 Q 5.401805706243383 0.4638399999999999 5.375045706243383 0.5117849999999999 Q 5.3482857062433835 0.55973 5.339365706243383 0.585375 Q 5.330445706243383 0.612135 5.330445706243383 0.6255149999999999 Q 5.330445706243383 0.6522749999999999 5.351630706243383 0.6522749999999999 Q 5.370585706243383 0.6522749999999999 5.397903206243383 0.63332 Q 5.425220706243383 0.6143649999999999 5.4542107062433836 0.5870474999999999 Q 5.483200706243383 0.55973 5.506615706243383 0.5335274999999999 Q 5.530030706243383 0.5073249999999999 5.540065706243383 0.49394499999999997 Q 5.542295706243383 0.4905999999999999 5.546755706243383 0.4905999999999999 Q 5.551215706243383 0.4905999999999999 5.554560706243383 0.49450249999999996 Q 5.557905706243383 0.498405 5.554560706243383 0.50398 Q 5.542295706243383 0.5229349999999999 5.518880706243383 0.5513675 Q 5.495465706243383 0.5798 5.466475706243383 0.607675 Q 5.4374857062433835 0.63555 5.409610706243383 0.65562 Q 5.395115706243383 0.66677 5.370028206243383 0.6762475 Q 5.344940706243383 0.6857249999999999 5.322640706243383 0.6857249999999999" fill="#382d5e" fill-rule="nonzero"></path></g><g><path d=" M 1.133708454089099 1.6135968750000003 L 1.1253193915890989 1.5536750000000001 L 1.146891266589099 1.5536750000000001 L 1.1385022040890989 1.6135968750000003 L 1.133708454089099 1.6135968750000003 M 1.181645954089099 1.6135968750000003 L 1.1732568915890988 1.5536750000000001 L 1.1948287665890989 1.5536750000000001 L 1.186439704089099 1.6135968750000003 L 1.181645954089099 1.6135968750000003 M 1.2301855987119017 1.7310437500000002 L 1.2301855987119017 1.7272087500000002 L 1.2493605987119016 1.7176212500000003 L 1.2493605987119016 1.5862725000000002 L 1.2301855987119017 1.5766850000000003 L 1.2301855987119017 1.5728500000000003 L 1.3449959112119017 1.5728500000000003 L 1.3449959112119017 1.61407625 L 1.3411609112119016 1.61407625 L 1.3263002862119015 1.5860328125000003 L 1.2709324737119017 1.5860328125000003 L 1.2709324737119017 1.6428387500000001 L 1.3092824737119015 1.6428387500000001 L 1.3212668487119017 1.6229446875000002 L 1.3251018487119017 1.6229446875000002 L 1.3251018487119017 1.6754362500000002 L 1.3212668487119017 1.6754362500000002 L 1.3092824737119015 1.6560215625000003 L 1.2709324737119017 1.6560215625000003 L 1.2709324737119017 1.7176212500000003 L 1.2925043487119017 1.7272087500000002 L 1.2925043487119017 1.7310437500000002 L 1.2301855987119017 1.7310437500000002 M 1.3676426348447142 1.7310437500000002 L 1.3676426348447142 1.7272087500000002 L 1.3827429473447141 1.7195387500000001 L 1.3827429473447141 1.6481118750000001 L 1.3683616973447141 1.6356481250000001 L 1.3683616973447141 1.6339703125000002 L 1.398082947344714 1.6207875000000003 L 1.3995210723447142 1.6207875000000003 L 1.4016782598447142 1.6411609375000002 L 1.402637009844714 1.6411609375000002 Q 1.4081498223447142 1.6322925000000001 1.412823728594714 1.6278582812500002 Q 1.4174976348447141 1.6234240625000003 1.421572322344714 1.6221057812500002 Q 1.425647009844714 1.6207875000000003 1.4297216973447142 1.6207875000000003 Q 1.4316391973447142 1.6207875000000003 1.4341559160947142 1.6215065625000002 Q 1.436672634844714 1.6222256250000002 1.4383504473447142 1.6229446875000002 Q 1.4409870098447142 1.6241431250000002 1.4432640410947142 1.6258209375000001 Q 1.4455410723447142 1.6274987500000002 1.4455410723447142 1.6296559375000002 Q 1.4455410723447142 1.6318131250000003 1.444582322344714 1.6339703125000002 L 1.4397885723447141 1.6457150000000003 L 1.4381107598447143 1.6457150000000003 L 1.4290026348447142 1.6421196875000001 Q 1.4263660723447142 1.6409212500000003 1.423849353594714 1.6406815625000002 Q 1.4213326348447142 1.6404418750000003 1.418935759844714 1.6404418750000003 Q 1.4088688848447142 1.6404418750000003 1.401917947344714 1.6507484375000003 L 1.401917947344714 1.7195387500000001 L 1.418935759844714 1.7272087500000002 L 1.418935759844714 1.7310437500000002 L 1.3676426348447142 1.7310437500000002 M 1.515643112139636 1.7334406250000003 Q 1.4998237371396361 1.7334406250000003 1.487959205889636 1.7260103125000001 Q 1.476094674639636 1.7185800000000002 1.469503268389636 1.7058765625000003 Q 1.462911862139636 1.6931731250000002 1.462911862139636 1.6771140625000003 Q 1.462911862139636 1.6610550000000002 1.469503268389636 1.6483515625000003 Q 1.476094674639636 1.6356481250000001 1.487959205889636 1.6282178125000002 Q 1.4998237371396361 1.6207875000000003 1.515643112139636 1.6207875000000003 Q 1.531462487139636 1.6207875000000003 1.5433270183896362 1.6282178125000002 Q 1.555191549639636 1.6356481250000001 1.5617829558896361 1.6483515625000003 Q 1.568374362139636 1.6610550000000002 1.568374362139636 1.6771140625000003 Q 1.568374362139636 1.6931731250000002 1.5617829558896361 1.7058765625000003 Q 1.555191549639636 1.7185800000000002 1.5433270183896362 1.7260103125000001 Q 1.531462487139636 1.7334406250000003 1.515643112139636 1.7334406250000003 M 1.518998737139636 1.7231340625000002 Q 1.5285862371396362 1.7231340625000002 1.534818112139636 1.7171418750000003 Q 1.541049987139636 1.7111496875000003 1.543926237139636 1.7016820312500003 Q 1.546802487139636 1.6922143750000003 1.546802487139636 1.6819078125000002 Q 1.546802487139636 1.6692043750000003 1.5433270183896362 1.6574596875000003 Q 1.539851549639636 1.6457150000000003 1.5323013933896361 1.6382846875000001 Q 1.5247512371396361 1.6308543750000002 1.512766862139636 1.6308543750000002 Q 1.502939674639636 1.6308543750000002 1.496707799639636 1.6368465625000002 Q 1.490475924639636 1.6428387500000001 1.487479830889636 1.6521865625000003 Q 1.484483737139636 1.6615343750000002 1.484483737139636 1.6720806250000002 Q 1.484483737139636 1.6847840625000001 1.488079049639636 1.6965287500000001 Q 1.491674362139636 1.7082734375000002 1.499344362139636 1.7157037500000003 Q 1.5070143621396361 1.7231340625000002 1.518998737139636 1.7231340625000002 M 1.592457689318591 1.7310437500000002 L 1.592457689318591 1.7272087500000002 L 1.607558001818591 1.7195387500000001 L 1.607558001818591 1.6481118750000001 L 1.593176751818591 1.6356481250000001 L 1.593176751818591 1.6339703125000002 L 1.622898001818591 1.6207875000000003 L 1.624336126818591 1.6207875000000003 L 1.6264933143185911 1.6385243750000003 L 1.627691751818591 1.6385243750000003 Q 1.636560189318591 1.6294162500000002 1.644829408068591 1.6251018750000001 Q 1.653098626818591 1.6207875000000003 1.662925814318591 1.6207875000000003 Q 1.674430814318591 1.6207875000000003 1.682580189318591 1.6259407812500002 Q 1.6907295643185911 1.6310940625000003 1.693126439318591 1.6414006250000002 L 1.693845501818591 1.6414006250000002 Q 1.703912376818591 1.6308543750000002 1.712660970568591 1.6258209375000001 Q 1.721409564318591 1.6207875000000003 1.731955814318591 1.6207875000000003 Q 1.745378314318591 1.6207875000000003 1.754126908068591 1.6278582812500002 Q 1.762875501818591 1.6349290625000001 1.762875501818591 1.6488309375000003 L 1.762875501818591 1.7195387500000001 L 1.777975814318591 1.7272087500000002 L 1.777975814318591 1.7310437500000002 L 1.726682689318591 1.7310437500000002 L 1.726682689318591 1.7272087500000002 L 1.743700501818591 1.7195387500000001 L 1.743700501818591 1.6600962500000003 Q 1.743700501818591 1.6495500000000003 1.737348783068591 1.6440371875000002 Q 1.730997064318591 1.6385243750000003 1.721169876818591 1.6385243750000003 Q 1.713020501818591 1.6385243750000003 1.705829876818591 1.6411609375000002 Q 1.698639251818591 1.6437975000000002 1.693845501818591 1.6490706250000002 L 1.693845501818591 1.7195387500000001 L 1.7103839393185911 1.7272087500000002 L 1.7103839393185911 1.7310437500000002 L 1.658611439318591 1.7310437500000002 L 1.658611439318591 1.7272087500000002 L 1.674670501818591 1.7195387500000001 L 1.674670501818591 1.6600962500000003 Q 1.674670501818591 1.6495500000000003 1.668318783068591 1.6440371875000002 Q 1.661967064318591 1.6385243750000003 1.652139876818591 1.6385243750000003 Q 1.6461476893185911 1.6385243750000003 1.638717376818591 1.6406815625000002 Q 1.631287064318591 1.6428387500000001 1.626733001818591 1.6469134375000003 L 1.626733001818591 1.7195387500000001 L 1.642312689318591 1.7272087500000002 L 1.642312689318591 1.7310437500000002 L 1.592457689318591 1.7310437500000002 M 1.8637804282712278 1.7310437500000002 L 1.8637804282712278 1.7272087500000002 L 1.8829554282712277 1.7176212500000003 L 1.8829554282712277 1.5862725000000002 L 1.8637804282712278 1.5766850000000003 L 1.8637804282712278 1.5728500000000003 L 1.9340088657712278 1.5728500000000003 Q 1.9603744907712277 1.5728500000000003 1.9790701157712278 1.5821978125000002 Q 1.9977657407712277 1.5915456250000002 2.007473084521228 1.6078443750000002 Q 2.0171804282712276 1.6241431250000002 2.0171804282712276 1.6447562500000001 Q 2.0171804282712276 1.6634518750000002 2.0108287095212276 1.6792712500000002 Q 2.0044769907712277 1.6950906250000002 1.9929719907712278 1.7065956250000003 Q 1.9814669907712277 1.7181006250000002 1.9660071470212277 1.7245721875000002 Q 1.9505473032712277 1.7310437500000002 1.9323310532712277 1.7310437500000002 L 1.8637804282712278 1.7310437500000002 M 1.9284960532712279 1.5860328125000003 L 1.9045273032712278 1.5860328125000003 L 1.9045273032712278 1.7178609375000002 L 1.9320913657712278 1.7178609375000002 Q 1.9512663657712277 1.7178609375000002 1.9652880845212277 1.7098314062500002 Q 1.9793098032712277 1.7018018750000001 1.9868599595212277 1.6870610937500001 Q 1.9944101157712277 1.6723203125000001 1.9944101157712277 1.6521865625000003 Q 1.9944101157712277 1.6322925000000001 1.9867401157712277 1.6173120312500002 Q 1.9790701157712278 1.6023315625000003 1.9643293345212278 1.5941821875000002 Q 1.9495885532712278 1.5860328125000003 1.9284960532712279 1.5860328125000003 M 2.0470273737668334 1.7310437500000002 L 2.0470273737668334 1.7272087500000002 L 2.0621276862668334 1.7195387500000001 L 2.0621276862668334 1.6481118750000001 L 2.0477464362668334 1.6356481250000001 L 2.0477464362668334 1.6339703125000002 L 2.077467686266833 1.6207875000000003 L 2.078905811266833 1.6207875000000003 L 2.081062998766833 1.6411609375000002 L 2.082021748766833 1.6411609375000002 Q 2.0875345612668332 1.6322925000000001 2.092208467516833 1.6278582812500002 Q 2.0968823737668334 1.6234240625000003 2.100957061266833 1.6221057812500002 Q 2.1050317487668333 1.6207875000000003 2.109106436266833 1.6207875000000003 Q 2.1110239362668333 1.6207875000000003 2.113540655016833 1.6215065625000002 Q 2.116057373766833 1.6222256250000002 2.117735186266833 1.6229446875000002 Q 2.120371748766833 1.6241431250000002 2.122648780016833 1.6258209375000001 Q 2.124925811266833 1.6274987500000002 2.124925811266833 1.6296559375000002 Q 2.124925811266833 1.6318131250000003 2.1239670612668333 1.6339703125000002 L 2.119173311266833 1.6457150000000003 L 2.117495498766833 1.6457150000000003 L 2.108387373766833 1.6421196875000001 Q 2.1057508112668333 1.6409212500000003 2.1032340925168334 1.6406815625000002 Q 2.100717373766833 1.6404418750000003 2.0983204987668334 1.6404418750000003 Q 2.088253623766833 1.6404418750000003 2.081302686266833 1.6507484375000003 L 2.081302686266833 1.7195387500000001 L 2.0983204987668334 1.7272087500000002 L 2.0983204987668334 1.7310437500000002 L 2.0470273737668334 1.7310437500000002 M 2.192391288561755 1.7334406250000003 Q 2.1691416010617552 1.7334406250000003 2.155719101061755 1.7192990625000002 Q 2.142296601061755 1.7051575000000003 2.142296601061755 1.6819078125000002 Q 2.142296601061755 1.6639312500000003 2.149367382311755 1.6501492187500002 Q 2.156438163561755 1.6363671875000003 2.1680630073117553 1.6285773437500002 Q 2.179687851061755 1.6207875000000003 2.1933500385617553 1.6207875000000003 Q 2.2122853510617553 1.6207875000000003 2.2231911323117552 1.6339703125000002 Q 2.234096913561755 1.6471531250000002 2.234096913561755 1.6718409375000003 L 2.232898476061755 1.673039375 L 2.161231913561755 1.673039375 Q 2.161471601061755 1.6840650000000001 2.165546288561755 1.6937723437500003 Q 2.169620976061755 1.7034796875000002 2.1786092573117553 1.7094718750000002 Q 2.187597538561755 1.7154640625000002 2.202697851061755 1.7154640625000002 Q 2.215880663561755 1.7154640625000002 2.233617538561755 1.7058765625000003 L 2.234336601061755 1.7058765625000003 L 2.234336601061755 1.7082734375000002 Q 2.2288237885617552 1.7185800000000002 2.2179180073117553 1.7260103125000001 Q 2.207012226061755 1.7334406250000003 2.192391288561755 1.7334406250000003 M 2.1895150385617552 1.6313337500000002 Q 2.178010038561755 1.6313337500000002 2.170699569811755 1.6393632812500003 Q 2.163389101061755 1.6473928125000001 2.161711288561755 1.6620137500000003 L 2.215880663561755 1.6620137500000003 Q 2.213244101061755 1.6457150000000003 2.206652694811755 1.6385243750000003 Q 2.200061288561755 1.6313337500000002 2.1895150385617552 1.6313337500000002 M 2.2855131592892945 1.7334406250000003 Q 2.274247846789294 1.7334406250000003 2.2668175342892942 1.7268492187500002 Q 2.2593872217892943 1.7202578125000003 2.2593872217892943 1.7085131250000003 Q 2.2593872217892943 1.6967684375000003 2.2681358155392943 1.6881396875000003 Q 2.2768844092892944 1.6795109375000001 2.2974975342892945 1.6747171875000002 L 2.3202678467892945 1.6694440625000002 L 2.3202678467892945 1.6519468750000001 Q 2.3202678467892945 1.6437975000000002 2.3136764405392944 1.6379251562500001 Q 2.3070850342892943 1.6320528125000002 2.2986959717892943 1.6320528125000002 Q 2.2895878467892943 1.6320528125000002 2.2859925342892944 1.6369664062500002 Q 2.2823972217892945 1.6418800000000002 2.2823972217892945 1.6500293750000001 L 2.2823972217892945 1.6567406250000003 L 2.2811987842892942 1.6579390625000001 L 2.2687350342892945 1.6579390625000001 Q 2.265139721789294 1.6579390625000001 2.2638214405392945 1.6567406250000003 Q 2.2625031592892944 1.6555421875000003 2.2625031592892944 1.6512278125000002 Q 2.2625031592892944 1.6459546875000002 2.2656190967892944 1.6404418750000003 Q 2.2687350342892945 1.6349290625000001 2.2752065967892943 1.6308543750000002 Q 2.281917846789294 1.6265400000000003 2.2892283155392943 1.6236637500000002 Q 2.2965387842892944 1.6207875000000003 2.3049278467892944 1.6207875000000003 Q 2.3133169092892945 1.6207875000000003 2.3213464405392945 1.6231843750000001 Q 2.329375971789294 1.6255812500000002 2.3344094092892944 1.6312139062500002 Q 2.3394428467892943 1.6368465625000002 2.3394428467892943 1.6469134375000003 L 2.3394428467892943 1.7149846875000003 Q 2.3411206592892944 1.7166625000000002 2.3442365967892944 1.7178609375000002 Q 2.3473525342892945 1.7190593750000003 2.352865346789294 1.7190593750000003 L 2.361973471789294 1.7190593750000003 L 2.362692534289294 1.7195387500000001 L 2.362692534289294 1.7202578125000003 Q 2.3598162842892942 1.7255309375000003 2.3541836280392943 1.7294857812500002 Q 2.3485509717892943 1.7334406250000003 2.3404015967892944 1.7334406250000003 Q 2.3329712842892945 1.7334406250000003 2.328297378039294 1.7294857812500002 Q 2.3236234717892943 1.7255309375000003 2.3217059717892945 1.7190593750000003 L 2.3202678467892945 1.7190593750000003 Q 2.3140359717892944 1.7252912500000002 2.3048080030392946 1.7293659375000001 Q 2.2955800342892942 1.7334406250000003 2.2855131592892945 1.7334406250000003 M 2.278082846789294 1.7037193750000001 Q 2.278082846789294 1.7185800000000002 2.2960594092892945 1.7185800000000002 Q 2.3018119092892944 1.7185800000000002 2.3074445655392943 1.7173815625000002 Q 2.3130772217892943 1.7161831250000001 2.3202678467892945 1.7130671875000003 L 2.3202678467892945 1.6775934375000001 Q 2.3010928467892944 1.6811887500000002 2.2922244092892945 1.6851435937500001 Q 2.283355971789294 1.6890984375000002 2.2807194092892944 1.6936525000000002 Q 2.278082846789294 1.6982065625000002 2.278082846789294 1.7037193750000001 M 2.3774365925168337 1.7310437500000002 L 2.3774365925168337 1.7272087500000002 L 2.3925369050168337 1.7195387500000001 L 2.3925369050168337 1.6481118750000001 L 2.3781556550168337 1.6356481250000001 L 2.3781556550168337 1.6339703125000002 L 2.407876905016834 1.6207875000000003 L 2.409315030016834 1.6207875000000003 L 2.4114722175168337 1.6385243750000003 L 2.4126706550168335 1.6385243750000003 Q 2.4215390925168334 1.6294162500000002 2.4298083112668336 1.6251018750000001 Q 2.438077530016834 1.6207875000000003 2.447904717516834 1.6207875000000003 Q 2.4594097175168335 1.6207875000000003 2.467559092516834 1.6259407812500002 Q 2.4757084675168337 1.6310940625000003 2.478105342516834 1.6414006250000002 L 2.4788244050168338 1.6414006250000002 Q 2.4888912800168335 1.6308543750000002 2.4976398737668335 1.6258209375000001 Q 2.5063884675168335 1.6207875000000003 2.5169347175168335 1.6207875000000003 Q 2.5303572175168334 1.6207875000000003 2.5391058112668334 1.6278582812500002 Q 2.5478544050168335 1.6349290625000001 2.5478544050168335 1.6488309375000003 L 2.5478544050168335 1.7195387500000001 L 2.5629547175168335 1.7272087500000002 L 2.5629547175168335 1.7310437500000002 L 2.5116615925168335 1.7310437500000002 L 2.5116615925168335 1.7272087500000002 L 2.5286794050168337 1.7195387500000001 L 2.5286794050168337 1.6600962500000003 Q 2.5286794050168337 1.6495500000000003 2.522327686266834 1.6440371875000002 Q 2.515975967516834 1.6385243750000003 2.506148780016834 1.6385243750000003 Q 2.4979994050168335 1.6385243750000003 2.4908087800168337 1.6411609375000002 Q 2.4836181550168335 1.6437975000000002 2.4788244050168338 1.6490706250000002 L 2.4788244050168338 1.7195387500000001 L 2.4953628425168337 1.7272087500000002 L 2.4953628425168337 1.7310437500000002 L 2.4435903425168335 1.7310437500000002 L 2.4435903425168335 1.7272087500000002 L 2.4596494050168336 1.7195387500000001 L 2.4596494050168336 1.6600962500000003 Q 2.4596494050168336 1.6495500000000003 2.4532976862668336 1.6440371875000002 Q 2.4469459675168337 1.6385243750000003 2.4371187800168337 1.6385243750000003 Q 2.4311265925168337 1.6385243750000003 2.423696280016834 1.6406815625000002 Q 2.4162659675168334 1.6428387500000001 2.4117119050168334 1.6469134375000003 L 2.4117119050168334 1.7195387500000001 L 2.4272915925168337 1.7272087500000002 L 2.4272915925168337 1.7310437500000002 L 2.3774365925168337 1.7310437500000002 M 2.6237119877194703 1.7334406250000003 Q 2.6124466752194704 1.7334406250000003 2.6042973002194705 1.7315231250000003 Q 2.5961479252194706 1.7296056250000003 2.5877588627194705 1.7252912500000002 L 2.5877588627194705 1.6984462500000002 L 2.5911144877194707 1.6984462500000002 L 2.5987844877194703 1.7116290625000001 Q 2.6062148002194707 1.724811875 2.6229929252194704 1.724811875 Q 2.6325804252194707 1.724811875 2.6379733939694705 1.7202578125000003 Q 2.6433663627194703 1.7157037500000003 2.6433663627194703 1.7077940625000003 Q 2.6433663627194703 1.7008431250000002 2.6400107377194706 1.6970081250000002 Q 2.6366551127194704 1.6931731250000002 2.6305430814694706 1.6901770312500002 Q 2.6244310502194708 1.6871809375000002 2.6160419877194707 1.6833459375000002 Q 2.6038179252194706 1.6778331250000003 2.5972265189694705 1.6712417187500002 Q 2.5906351127194704 1.6646503125000003 2.5906351127194704 1.6526659375000001 Q 2.5906351127194704 1.6437975000000002 2.5956685502194707 1.6366068750000002 Q 2.6007019877194706 1.6294162500000002 2.6084918314694705 1.6251018750000001 Q 2.6162816752194704 1.6207875000000003 2.6246707377194705 1.6207875000000003 Q 2.6335391752194703 1.6207875000000003 2.6409694877194707 1.6229446875000002 Q 2.6483998002194706 1.6251018750000001 2.6560698002194707 1.6289368750000002 L 2.6560698002194707 1.6550628125000002 L 2.6527141752194705 1.6550628125000002 L 2.6448044877194707 1.6423593750000003 Q 2.6407298002194706 1.6358878125000003 2.6359360502194704 1.6330115625000001 Q 2.6311423002194707 1.6301353125000002 2.6256294877194706 1.6301353125000002 Q 2.6174801127194707 1.6301353125000002 2.6125665189694707 1.6342100000000002 Q 2.6076529252194707 1.6382846875000001 2.6076529252194707 1.6454753125000001 Q 2.6076529252194707 1.6536246875000002 2.6135252689694703 1.6578192187500003 Q 2.6193976127194705 1.6620137500000003 2.6306629252194704 1.6672868750000003 Q 2.6373741752194704 1.6706425000000003 2.6442052689694706 1.6739981250000002 Q 2.6510363627194704 1.6773537500000002 2.6554705814694706 1.6834657812500002 Q 2.6599048002194707 1.6895778125000003 2.6599048002194707 1.7008431250000002 Q 2.6599048002194707 1.7113893750000002 2.6541523002194705 1.7186998437500003 Q 2.6483998002194706 1.7260103125000001 2.6400107377194706 1.72972546875 Q 2.6316216752194705 1.7334406250000003 2.6237119877194703 1.7334406250000003 M 2.78718050120824 1.7334406250000003 Q 2.77663425120824 1.7334406250000003 2.76896425120824 1.7272087500000002 Q 2.76129425120824 1.7209768750000003 2.76129425120824 1.7097115625000001 L 2.76129425120824 1.6344496875000003 L 2.74163987620824 1.6344496875000003 L 2.74163987620824 1.6330115625000001 L 2.76201331370824 1.6231843750000001 L 2.77903112620824 1.5968187500000002 L 2.78046925120824 1.5968187500000002 L 2.78046925120824 1.6231843750000001 L 2.81210800120824 1.6231843750000001 L 2.81210800120824 1.6344496875000003 L 2.78046925120824 1.6344496875000003 L 2.78046925120824 1.7056368750000002 Q 2.78046925120824 1.7118687500000003 2.78598206370824 1.7147450000000002 Q 2.79149487620824 1.7176212500000003 2.79892518870824 1.7176212500000003 Q 2.80347925120824 1.7176212500000003 2.80743409495824 1.7171418750000003 Q 2.81138893870824 1.7166625000000002 2.81426518870824 1.7159434375000002 L 2.81498425120824 1.7159434375000002 L 2.81498425120824 1.7183403125000003 Q 2.81258737620824 1.7238531250000002 2.80551659495824 1.7286468750000001 Q 2.79844581370824 1.7334406250000003 2.78718050120824 1.7334406250000003 M 2.887490656237537 1.7334406250000003 Q 2.871671281237537 1.7334406250000003 2.859806749987537 1.7260103125000001 Q 2.847942218737537 1.7185800000000002 2.841350812487537 1.7058765625000003 Q 2.834759406237537 1.6931731250000002 2.834759406237537 1.6771140625000003 Q 2.834759406237537 1.6610550000000002 2.841350812487537 1.6483515625000003 Q 2.847942218737537 1.6356481250000001 2.859806749987537 1.6282178125000002 Q 2.871671281237537 1.6207875000000003 2.887490656237537 1.6207875000000003 Q 2.903310031237537 1.6207875000000003 2.915174562487537 1.6282178125000002 Q 2.927039093737537 1.6356481250000001 2.933630499987537 1.6483515625000003 Q 2.940221906237537 1.6610550000000002 2.940221906237537 1.6771140625000003 Q 2.940221906237537 1.6931731250000002 2.933630499987537 1.7058765625000003 Q 2.927039093737537 1.7185800000000002 2.915174562487537 1.7260103125000001 Q 2.903310031237537 1.7334406250000003 2.887490656237537 1.7334406250000003 M 2.890846281237537 1.7231340625000002 Q 2.900433781237537 1.7231340625000002 2.906665656237537 1.7171418750000003 Q 2.912897531237537 1.7111496875000003 2.915773781237537 1.7016820312500003 Q 2.918650031237537 1.6922143750000003 2.918650031237537 1.6819078125000002 Q 2.918650031237537 1.6692043750000003 2.915174562487537 1.6574596875000003 Q 2.911699093737537 1.6457150000000003 2.904148937487537 1.6382846875000001 Q 2.896598781237537 1.6308543750000002 2.884614406237537 1.6308543750000002 Q 2.874787218737537 1.6308543750000002 2.868555343737537 1.6368465625000002 Q 2.862323468737537 1.6428387500000001 2.859327374987537 1.6521865625000003 Q 2.856331281237537 1.6615343750000002 2.856331281237537 1.6720806250000002 Q 2.856331281237537 1.6847840625000001 2.859926593737537 1.6965287500000001 Q 2.863521906237537 1.7082734375000002 2.871191906237537 1.7157037500000003 Q 2.878861906237537 1.7231340625000002 2.890846281237537 1.7231340625000002 M 3.028901014666492 1.7310437500000002 L 3.028901014666492 1.7272087500000002 L 3.048076014666492 1.7176212500000003 L 3.048076014666492 1.5862725000000002 L 3.028901014666492 1.5766850000000003 L 3.028901014666492 1.5728500000000003 L 3.099129452166492 1.5728500000000003 Q 3.125495077166492 1.5728500000000003 3.144190702166492 1.5821978125000002 Q 3.162886327166492 1.5915456250000002 3.172593670916492 1.6078443750000002 Q 3.182301014666492 1.6241431250000002 3.182301014666492 1.6447562500000001 Q 3.182301014666492 1.6634518750000002 3.175949295916492 1.6792712500000002 Q 3.169597577166492 1.6950906250000002 3.158092577166492 1.7065956250000003 Q 3.146587577166492 1.7181006250000002 3.131127733416492 1.7245721875000002 Q 3.115667889666492 1.7310437500000002 3.097451639666492 1.7310437500000002 L 3.028901014666492 1.7310437500000002 M 3.093616639666492 1.5860328125000003 L 3.069647889666492 1.5860328125000003 L 3.069647889666492 1.7178609375000002 L 3.097211952166492 1.7178609375000002 Q 3.116386952166492 1.7178609375000002 3.130408670916492 1.7098314062500002 Q 3.144430389666492 1.7018018750000001 3.151980545916492 1.6870610937500001 Q 3.1595307021664922 1.6723203125000001 3.1595307021664922 1.6521865625000003 Q 3.1595307021664922 1.6322925000000001 3.151860702166492 1.6173120312500002 Q 3.144190702166492 1.6023315625000003 3.129449920916492 1.5941821875000002 Q 3.114709139666492 1.5860328125000003 3.093616639666492 1.5860328125000003 M 3.2617632726620975 1.7334406250000003 Q 3.2385135851620976 1.7334406250000003 3.2250910851620973 1.7192990625000002 Q 3.2116685851620974 1.7051575000000003 3.2116685851620974 1.6819078125000002 Q 3.2116685851620974 1.6639312500000003 3.2187393664120973 1.6501492187500002 Q 3.2258101476620973 1.6363671875000003 3.2374349914120977 1.6285773437500002 Q 3.2490598351620976 1.6207875000000003 3.2627220226620977 1.6207875000000003 Q 3.2816573351620977 1.6207875000000003 3.2925631164120976 1.6339703125000002 Q 3.3034688976620976 1.6471531250000002 3.3034688976620976 1.6718409375000003 L 3.3022704601620974 1.673039375 L 3.2306038976620974 1.673039375 Q 3.2308435851620976 1.6840650000000001 3.2349182726620973 1.6937723437500003 Q 3.2389929601620975 1.7034796875000002 3.2479812414120977 1.7094718750000002 Q 3.2569695226620974 1.7154640625000002 3.2720698351620974 1.7154640625000002 Q 3.2852526476620976 1.7154640625000002 3.3029895226620973 1.7058765625000003 L 3.3037085851620973 1.7058765625000003 L 3.3037085851620973 1.7082734375000002 Q 3.2981957726620976 1.7185800000000002 3.2872899914120977 1.7260103125000001 Q 3.2763842101620977 1.7334406250000003 3.2617632726620975 1.7334406250000003 M 3.2588870226620976 1.6313337500000002 Q 3.2473820226620975 1.6313337500000002 3.2400715539120974 1.6393632812500003 Q 3.2327610851620974 1.6473928125000001 3.2310832726620973 1.6620137500000003 L 3.2852526476620976 1.6620137500000003 Q 3.2826160851620974 1.6457150000000003 3.2760246789120977 1.6385243750000003 Q 3.2694332726620976 1.6313337500000002 3.2588870226620976 1.6313337500000002 M 3.367347723040515 1.7334406250000003 Q 3.356082410540515 1.7334406250000003 3.3479330355405152 1.7315231250000003 Q 3.3397836605405153 1.7296056250000003 3.3313945980405153 1.7252912500000002 L 3.3313945980405153 1.6984462500000002 L 3.3347502230405155 1.6984462500000002 L 3.342420223040515 1.7116290625000001 Q 3.3498505355405155 1.724811875 3.366628660540515 1.724811875 Q 3.3762161605405154 1.724811875 3.3816091292905153 1.7202578125000003 Q 3.387002098040515 1.7157037500000003 3.387002098040515 1.7077940625000003 Q 3.387002098040515 1.7008431250000002 3.3836464730405154 1.6970081250000002 Q 3.380290848040515 1.6931731250000002 3.3741788167905153 1.6901770312500002 Q 3.368066785540515 1.6871809375000002 3.3596777230405155 1.6833459375000002 Q 3.3474536605405154 1.6778331250000003 3.3408622542905153 1.6712417187500002 Q 3.334270848040515 1.6646503125000003 3.334270848040515 1.6526659375000001 Q 3.334270848040515 1.6437975000000002 3.3393042855405155 1.6366068750000002 Q 3.3443377230405154 1.6294162500000002 3.3521275667905153 1.6251018750000001 Q 3.359917410540515 1.6207875000000003 3.3683064730405152 1.6207875000000003 Q 3.377174910540515 1.6207875000000003 3.3846052230405155 1.6229446875000002 Q 3.3920355355405154 1.6251018750000001 3.3997055355405155 1.6289368750000002 L 3.3997055355405155 1.6550628125000002 L 3.3963499105405153 1.6550628125000002 L 3.3884402230405155 1.6423593750000003 Q 3.3843655355405153 1.6358878125000003 3.379571785540515 1.6330115625000001 Q 3.3747780355405155 1.6301353125000002 3.3692652230405153 1.6301353125000002 Q 3.3611158480405154 1.6301353125000002 3.3562022542905154 1.6342100000000002 Q 3.3512886605405154 1.6382846875000001 3.3512886605405154 1.6454753125000001 Q 3.3512886605405154 1.6536246875000002 3.357161004290515 1.6578192187500003 Q 3.3630333480405152 1.6620137500000003 3.374298660540515 1.6672868750000003 Q 3.381009910540515 1.6706425000000003 3.3878410042905154 1.6739981250000002 Q 3.394672098040515 1.6773537500000002 3.3991063167905153 1.6834657812500002 Q 3.4035405355405155 1.6895778125000003 3.4035405355405155 1.7008431250000002 Q 3.4035405355405155 1.7113893750000002 3.3977880355405152 1.7186998437500003 Q 3.3920355355405154 1.7260103125000001 3.3836464730405154 1.72972546875 Q 3.3752574105405153 1.7334406250000003 3.367347723040515 1.7334406250000003 M 3.4678959270810426 1.7334406250000003 Q 3.4573496770810426 1.7334406250000003 3.4496796770810425 1.7272087500000002 Q 3.4420096770810424 1.7209768750000003 3.4420096770810424 1.7097115625000001 L 3.4420096770810424 1.6344496875000003 L 3.4223553020810424 1.6344496875000003 L 3.4223553020810424 1.6330115625000001 L 3.4427287395810424 1.6231843750000001 L 3.4597465520810426 1.5968187500000002 L 3.4611846770810426 1.5968187500000002 L 3.4611846770810426 1.6231843750000001 L 3.4928234270810425 1.6231843750000001 L 3.4928234270810425 1.6344496875000003 L 3.4611846770810426 1.6344496875000003 L 3.4611846770810426 1.7056368750000002 Q 3.4611846770810426 1.7118687500000003 3.4666974895810427 1.7147450000000002 Q 3.4722103020810424 1.7176212500000003 3.479640614581043 1.7176212500000003 Q 3.4841946770810424 1.7176212500000003 3.4881495208310427 1.7171418750000003 Q 3.4921043645810426 1.7166625000000002 3.4949806145810425 1.7159434375000002 L 3.4956996770810425 1.7159434375000002 L 3.4956996770810425 1.7183403125000003 Q 3.4933028020810424 1.7238531250000002 3.4862320208310424 1.7286468750000001 Q 3.4791612395810425 1.7334406250000003 3.4678959270810426 1.7334406250000003 M 3.5404023321103395 1.5917853125000003 Q 3.5341704571103394 1.5917853125000003 3.5300957696103397 1.5875907812500003 Q 3.5260210821103395 1.5833962500000003 3.5260210821103395 1.5774040625000003 Q 3.5260210821103395 1.5711721875000002 3.5300957696103397 1.5670975000000003 Q 3.5341704571103394 1.5630228125000003 3.5404023321103395 1.5630228125000003 Q 3.5466342071103396 1.5630228125000003 3.55070889461034 1.5670975000000003 Q 3.5547835821103395 1.5711721875000002 3.5547835821103395 1.5774040625000003 Q 3.5547835821103395 1.5833962500000003 3.55070889461034 1.5875907812500003 Q 3.5466342071103396 1.5917853125000003 3.5404023321103395 1.5917853125000003 M 3.5164335821103396 1.7310437500000002 L 3.5164335821103396 1.7272087500000002 L 3.5315338946103396 1.7195387500000001 L 3.5315338946103396 1.6481118750000001 L 3.5171526446103396 1.6356481250000001 L 3.5171526446103396 1.6339703125000002 L 3.5492707696103394 1.6207875000000003 L 3.55070889461034 1.6207875000000003 L 3.55070889461034 1.7195387500000001 L 3.5658092071103398 1.7272087500000002 L 3.5658092071103398 1.7310437500000002 L 3.5164335821103396 1.7310437500000002 M 3.590614054522449 1.7310437500000002 L 3.590614054522449 1.7272087500000002 L 3.605714367022449 1.7195387500000001 L 3.605714367022449 1.6481118750000001 L 3.591333117022449 1.6356481250000001 L 3.591333117022449 1.6339703125000002 L 3.621054367022449 1.6207875000000003 L 3.6224924920224493 1.6207875000000003 L 3.624649679522449 1.6385243750000003 L 3.625848117022449 1.6385243750000003 Q 3.634956242022449 1.6294162500000002 3.643465148272449 1.6251018750000001 Q 3.6519740545224493 1.6207875000000003 3.662280617022449 1.6207875000000003 Q 3.676422179522449 1.6207875000000003 3.685410460772449 1.6278582812500002 Q 3.694398742022449 1.6349290625000001 3.694398742022449 1.6488309375000003 L 3.694398742022449 1.7195387500000001 L 3.709499054522449 1.7272087500000002 L 3.709499054522449 1.7310437500000002 L 3.658205929522449 1.7310437500000002 L 3.658205929522449 1.7272087500000002 L 3.675223742022449 1.7195387500000001 L 3.675223742022449 1.6600962500000003 Q 3.675223742022449 1.6495500000000003 3.668632335772449 1.6440371875000002 Q 3.662040929522449 1.6385243750000003 3.651494679522449 1.6385243750000003 Q 3.645023117022449 1.6385243750000003 3.6372332732724493 1.6406815625000002 Q 3.629443429522449 1.6428387500000001 3.624889367022449 1.6469134375000003 L 3.624889367022449 1.7195387500000001 L 3.641907179522449 1.7272087500000002 L 3.641907179522449 1.7310437500000002 L 3.590614054522449 1.7310437500000002 M 3.7553909012936897 1.7334406250000003 Q 3.7441255887936893 1.7334406250000003 3.7366952762936894 1.7268492187500002 Q 3.7292649637936894 1.7202578125000003 3.7292649637936894 1.7085131250000003 Q 3.7292649637936894 1.6967684375000003 3.7380135575436895 1.6881396875000003 Q 3.7467621512936895 1.6795109375000001 3.7673752762936896 1.6747171875000002 L 3.7901455887936897 1.6694440625000002 L 3.7901455887936897 1.6519468750000001 Q 3.7901455887936897 1.6437975000000002 3.7835541825436896 1.6379251562500001 Q 3.7769627762936895 1.6320528125000002 3.7685737137936894 1.6320528125000002 Q 3.7594655887936894 1.6320528125000002 3.7558702762936895 1.6369664062500002 Q 3.7522749637936896 1.6418800000000002 3.7522749637936896 1.6500293750000001 L 3.7522749637936896 1.6567406250000003 L 3.7510765262936894 1.6579390625000001 L 3.7386127762936896 1.6579390625000001 Q 3.7350174637936893 1.6579390625000001 3.7336991825436896 1.6567406250000003 Q 3.7323809012936895 1.6555421875000003 3.7323809012936895 1.6512278125000002 Q 3.7323809012936895 1.6459546875000002 3.7354968387936895 1.6404418750000003 Q 3.7386127762936896 1.6349290625000001 3.7450843387936894 1.6308543750000002 Q 3.7517955887936894 1.6265400000000003 3.7591060575436894 1.6236637500000002 Q 3.7664165262936895 1.6207875000000003 3.7748055887936895 1.6207875000000003 Q 3.7831946512936896 1.6207875000000003 3.7912241825436896 1.6231843750000001 Q 3.7992537137936893 1.6255812500000002 3.8042871512936896 1.6312139062500002 Q 3.8093205887936894 1.6368465625000002 3.8093205887936894 1.6469134375000003 L 3.8093205887936894 1.7149846875000003 Q 3.8109984012936895 1.7166625000000002 3.8141143387936896 1.7178609375000002 Q 3.8172302762936896 1.7190593750000003 3.8227430887936893 1.7190593750000003 L 3.8318512137936893 1.7190593750000003 L 3.8325702762936893 1.7195387500000001 L 3.8325702762936893 1.7202578125000003 Q 3.8296940262936894 1.7255309375000003 3.8240613700436894 1.7294857812500002 Q 3.8184287137936894 1.7334406250000003 3.8102793387936895 1.7334406250000003 Q 3.8028490262936896 1.7334406250000003 3.7981751200436893 1.7294857812500002 Q 3.7935012137936894 1.7255309375000003 3.7915837137936896 1.7190593750000003 L 3.7901455887936897 1.7190593750000003 Q 3.7839137137936896 1.7252912500000002 3.7746857450436897 1.7293659375000001 Q 3.7654577762936894 1.7334406250000003 3.7553909012936897 1.7334406250000003 M 3.7479605887936893 1.7037193750000001 Q 3.7479605887936893 1.7185800000000002 3.7659371512936897 1.7185800000000002 Q 3.7716896512936895 1.7185800000000002 3.7773223075436895 1.7173815625000002 Q 3.7829549637936895 1.7161831250000001 3.7901455887936897 1.7130671875000003 L 3.7901455887936897 1.6775934375000001 Q 3.7709705887936895 1.6811887500000002 3.7621021512936896 1.6851435937500001 Q 3.7532337137936893 1.6890984375000002 3.7505971512936895 1.6936525000000002 Q 3.7479605887936893 1.6982065625000002 3.7479605887936893 1.7037193750000001 M 3.8856643345212287 1.7334406250000003 Q 3.8751180845212287 1.7334406250000003 3.8674480845212287 1.7272087500000002 Q 3.8597780845212286 1.7209768750000003 3.8597780845212286 1.7097115625000001 L 3.8597780845212286 1.6344496875000003 L 3.8401237095212286 1.6344496875000003 L 3.8401237095212286 1.6330115625000001 L 3.8604971470212286 1.6231843750000001 L 3.877514959521229 1.5968187500000002 L 3.878953084521229 1.5968187500000002 L 3.878953084521229 1.6231843750000001 L 3.9105918345212287 1.6231843750000001 L 3.9105918345212287 1.6344496875000003 L 3.878953084521229 1.6344496875000003 L 3.878953084521229 1.7056368750000002 Q 3.878953084521229 1.7118687500000003 3.884465897021229 1.7147450000000002 Q 3.8899787095212286 1.7176212500000003 3.897409022021229 1.7176212500000003 Q 3.9019630845212285 1.7176212500000003 3.905917928271229 1.7171418750000003 Q 3.9098727720212287 1.7166625000000002 3.9127490220212287 1.7159434375000002 L 3.9134680845212286 1.7159434375000002 L 3.9134680845212286 1.7183403125000003 Q 3.9110712095212286 1.7238531250000002 3.9040004282712286 1.7286468750000001 Q 3.8969296470212287 1.7334406250000003 3.8856643345212287 1.7334406250000003 M 3.9581707395505257 1.5917853125000003 Q 3.9519388645505256 1.5917853125000003 3.947864177050526 1.5875907812500003 Q 3.9437894895505257 1.5833962500000003 3.9437894895505257 1.5774040625000003 Q 3.9437894895505257 1.5711721875000002 3.947864177050526 1.5670975000000003 Q 3.9519388645505256 1.5630228125000003 3.9581707395505257 1.5630228125000003 Q 3.964402614550526 1.5630228125000003 3.968477302050526 1.5670975000000003 Q 3.9725519895505257 1.5711721875000002 3.9725519895505257 1.5774040625000003 Q 3.9725519895505257 1.5833962500000003 3.968477302050526 1.5875907812500003 Q 3.964402614550526 1.5917853125000003 3.9581707395505257 1.5917853125000003 M 3.934201989550526 1.7310437500000002 L 3.934201989550526 1.7272087500000002 L 3.949302302050526 1.7195387500000001 L 3.949302302050526 1.6481118750000001 L 3.934921052050526 1.6356481250000001 L 3.934921052050526 1.6339703125000002 L 3.9670391770505256 1.6207875000000003 L 3.968477302050526 1.6207875000000003 L 3.968477302050526 1.7195387500000001 L 3.983577614550526 1.7272087500000002 L 3.983577614550526 1.7310437500000002 L 3.934201989550526 1.7310437500000002 M 4.0615930869626355 1.7334406250000003 Q 4.045773711962635 1.7334406250000003 4.0339091807126355 1.7260103125000001 Q 4.022044649462635 1.7185800000000002 4.015453243212635 1.7058765625000003 Q 4.008861836962636 1.6931731250000002 4.008861836962636 1.6771140625000003 Q 4.008861836962636 1.6610550000000002 4.015453243212635 1.6483515625000003 Q 4.022044649462635 1.6356481250000001 4.0339091807126355 1.6282178125000002 Q 4.045773711962635 1.6207875000000003 4.0615930869626355 1.6207875000000003 Q 4.077412461962635 1.6207875000000003 4.089276993212636 1.6282178125000002 Q 4.101141524462635 1.6356481250000001 4.107732930712635 1.6483515625000003 Q 4.114324336962635 1.6610550000000002 4.114324336962635 1.6771140625000003 Q 4.114324336962635 1.6931731250000002 4.107732930712635 1.7058765625000003 Q 4.101141524462635 1.7185800000000002 4.089276993212636 1.7260103125000001 Q 4.077412461962635 1.7334406250000003 4.0615930869626355 1.7334406250000003 M 4.064948711962635 1.7231340625000002 Q 4.074536211962635 1.7231340625000002 4.080768086962635 1.7171418750000003 Q 4.086999961962635 1.7111496875000003 4.089876211962635 1.7016820312500003 Q 4.092752461962635 1.6922143750000003 4.092752461962635 1.6819078125000002 Q 4.092752461962635 1.6692043750000003 4.089276993212636 1.6574596875000003 Q 4.085801524462635 1.6457150000000003 4.078251368212635 1.6382846875000001 Q 4.070701211962636 1.6308543750000002 4.058716836962636 1.6308543750000002 Q 4.048889649462636 1.6308543750000002 4.0426577744626355 1.6368465625000002 Q 4.036425899462635 1.6428387500000001 4.033429805712635 1.6521865625000003 Q 4.030433711962635 1.6615343750000002 4.030433711962635 1.6720806250000002 Q 4.030433711962635 1.6847840625000001 4.034029024462635 1.6965287500000001 Q 4.037624336962636 1.7082734375000002 4.045294336962635 1.7157037500000003 Q 4.052964336962635 1.7231340625000002 4.064948711962635 1.7231340625000002 M 4.13840766414159 1.7310437500000002 L 4.13840766414159 1.7272087500000002 L 4.15350797664159 1.7195387500000001 L 4.15350797664159 1.6481118750000001 L 4.13912672664159 1.6356481250000001 L 4.13912672664159 1.6339703125000002 L 4.16884797664159 1.6207875000000003 L 4.17028610164159 1.6207875000000003 L 4.17244328914159 1.6385243750000003 L 4.17364172664159 1.6385243750000003 Q 4.18274985164159 1.6294162500000002 4.19125875789159 1.6251018750000001 Q 4.19976766414159 1.6207875000000003 4.21007422664159 1.6207875000000003 Q 4.22421578914159 1.6207875000000003 4.23320407039159 1.6278582812500002 Q 4.24219235164159 1.6349290625000001 4.24219235164159 1.6488309375000003 L 4.24219235164159 1.7195387500000001 L 4.25729266414159 1.7272087500000002 L 4.25729266414159 1.7310437500000002 L 4.20599953914159 1.7310437500000002 L 4.20599953914159 1.7272087500000002 L 4.22301735164159 1.7195387500000001 L 4.22301735164159 1.6600962500000003 Q 4.22301735164159 1.6495500000000003 4.21642594539159 1.6440371875000002 Q 4.20983453914159 1.6385243750000003 4.19928828914159 1.6385243750000003 Q 4.19281672664159 1.6385243750000003 4.18502688289159 1.6406815625000002 Q 4.17723703914159 1.6428387500000001 4.17268297664159 1.6469134375000003 L 4.17268297664159 1.7195387500000001 L 4.18970078914159 1.7272087500000002 L 4.18970078914159 1.7310437500000002 L 4.13840766414159 1.7310437500000002 M 4.294556931261951 1.6135968750000003 L 4.286167868761951 1.5536750000000001 L 4.307739743761951 1.5536750000000001 L 4.299350681261951 1.6135968750000003 L 4.294556931261951 1.6135968750000003 M 4.342494431261952 1.6135968750000003 L 4.334105368761952 1.5536750000000001 L 4.355677243761951 1.5536750000000001 L 4.347288181261951 1.6135968750000003 L 4.342494431261952 1.6135968750000003" fill="#c84449" fill-rule="nonzero"></path></g></g><defs><clipPath id="SvgjsClipPath64509"><path d=" M 1.439237609863281 0.01428750000000012 h 1.0181545294855705 v 1.0251 h -1.0181545294855705 Z"></path></clipPath><clipPath id="SvgjsClipPath645046773ad7c-513f-4570-b26b-2cf562c6ffe0"><path d=" M 1.439237609863281 0.01428750000000012 L 2.4573921393488516 0.01428750000000012 L 2.4573921393488516 1.0393875000000001 L 1.4392376098632809 1.0393875000000001 Z"></path></clipPath></defs></svg>